<svg width="95" height="46" viewBox="0 0 95 46" fill="none" xmlns="http://www.w3.org/2000/svg">
<path d="M83.8182 13H72.1818C66.5586 13 62 17.4772 62 23C62 28.5228 66.5586 33 72.1818 33H83.8182C89.4414 33 94 28.5228 94 23C94 17.4772 89.4414 13 83.8182 13Z" stroke="#00FF00" stroke-width="2" stroke-linecap="round" stroke-linejoin="round"/>
<path d="M73.0107 26.6842C75.2911 26.6842 77.1398 24.7991 77.1398 22.4737C77.1398 20.1483 75.2911 18.2632 73.0107 18.2632C70.7303 18.2632 68.8817 20.1483 68.8817 22.4737C68.8817 24.7991 70.7303 26.6842 73.0107 26.6842Z" fill="#00FF00" stroke="#00FF00" stroke-width="2" stroke-linecap="round" stroke-linejoin="round"/>
<path d="M23 32.5832C28.2927 32.5832 32.5833 28.2926 32.5833 22.9998C32.5833 17.7071 28.2927 13.4165 23 13.4165C17.7072 13.4165 13.4166 17.7071 13.4166 22.9998C13.4166 28.2926 17.7072 32.5832 23 32.5832Z" stroke="#00FF00" stroke-width="2" stroke-linecap="round" stroke-linejoin="round"/>
<path d="M23 1.9165V5.74984" stroke="#00FF00" stroke-width="2" stroke-linecap="round" stroke-linejoin="round"/>
<path d="M23 40.25V44.0833" stroke="#00FF00" stroke-width="2" stroke-linecap="round" stroke-linejoin="round"/>
<path d="M8.08838 8.08838L10.81 10.81" stroke="#00FF00" stroke-width="2" stroke-linecap="round" stroke-linejoin="round"/>
<path d="M35.1899 35.1899L37.9116 37.9116" stroke="#00FF00" stroke-width="2" stroke-linecap="round" stroke-linejoin="round"/>
<path d="M1.91663 23H5.74996" stroke="#00FF00" stroke-width="2" stroke-linecap="round" stroke-linejoin="round"/>
<path d="M40.25 23H44.0833" stroke="#00FF00" stroke-width="2" stroke-linecap="round" stroke-linejoin="round"/>
<path d="M8.08838 37.9116L10.81 35.1899" stroke="#00FF00" stroke-width="2" stroke-linecap="round" stroke-linejoin="round"/>
<path d="M35.1899 10.81L37.9116 8.08838" stroke="#00FF00" stroke-width="2" stroke-linecap="round" stroke-linejoin="round"/>
</svg>
