<svg width="186" height="53" viewBox="0 0 186 53" fill="none" xmlns="http://www.w3.org/2000/svg">
<path d="M116.25 12.0134C114.454 12.914 112.466 13.6029 110.363 14.0534C109.233 13.1301 107.733 12.4757 106.063 12.1786C104.394 11.8816 102.637 11.9563 101.029 12.3927C99.4212 12.829 98.0408 13.6059 97.0743 14.6184C96.1079 15.6308 95.6019 16.8299 95.625 18.0534V19.3867C92.3299 19.4475 89.0649 18.9278 86.1206 17.874C83.1764 16.8202 80.6443 15.2649 78.75 13.3467C78.75 13.3467 71.25 25.3467 88.125 30.6801C84.2635 32.544 79.6634 33.4786 75 33.3467C91.875 40.0134 112.5 33.3467 112.5 18.0134C112.498 17.642 112.448 17.2715 112.35 16.9067C114.264 15.5647 115.614 13.8704 116.25 12.0134V12.0134Z" stroke="#00FF00" stroke-width="2" stroke-linecap="round" stroke-linejoin="round"/>
<path d="M31.875 4.75H13.125C7.94733 4.75 3.75 8.94733 3.75 14.125V32.875C3.75 38.0527 7.94733 42.25 13.125 42.25H31.875C37.0527 42.25 41.25 38.0527 41.25 32.875V14.125C41.25 8.94733 37.0527 4.75 31.875 4.75Z" stroke="#00FF00" stroke-width="2" stroke-linecap="round" stroke-linejoin="round"/>
<path d="M30 22.3188C30.2314 23.8793 29.9649 25.473 29.2383 26.8732C28.5117 28.2735 27.3622 29.409 25.9531 30.1182C24.5439 30.8275 22.9471 31.0743 21.3896 30.8237C19.8321 30.5731 18.3933 29.8377 17.2778 28.7223C16.1623 27.6068 15.427 26.168 15.1764 24.6105C14.9258 23.053 15.1726 21.4561 15.8819 20.047C16.5911 18.6379 17.7266 17.4883 19.1268 16.7618C20.5271 16.0352 22.1208 15.7687 23.6813 16.0001C25.273 16.2361 26.7466 16.9778 27.8844 18.1157C29.0223 19.2535 29.764 20.7271 30 22.3188Z" stroke="#00FF00" stroke-width="2" stroke-linecap="round" stroke-linejoin="round"/>
<path d="M32.8125 13.1875H32.8313" stroke="#00FF00" stroke-width="2" stroke-linecap="round" stroke-linejoin="round"/>
<path d="M174.75 3.75H169.125C166.639 3.75 164.254 4.73772 162.496 6.49587C160.738 8.25403 159.75 10.6386 159.75 13.125V18.75H154.125V26.25H159.75V41.25H167.25V26.25H172.875L174.75 18.75H167.25V13.125C167.25 12.6277 167.448 12.1508 167.799 11.7992C168.151 11.4475 168.628 11.25 169.125 11.25H174.75V3.75Z" stroke="#00FF00" stroke-width="2" stroke-linecap="round" stroke-linejoin="round"/>
</svg>
