<svg width="97" height="29" viewBox="0 0 97 29" fill="none" xmlns="http://www.w3.org/2000/svg">
<path d="M7.54325 23.288C6.21525 23.288 4.92725 23.112 3.67925 22.76C2.44725 22.392 1.45525 21.92 0.70325 21.344L2.02325 18.416C2.74325 18.944 3.59925 19.368 4.59125 19.688C5.58325 20.008 6.57525 20.168 7.56725 20.168C8.67125 20.168 9.48725 20.008 10.0153 19.688C10.5433 19.352 10.8073 18.912 10.8073 18.368C10.8073 17.968 10.6473 17.64 10.3273 17.384C10.0233 17.112 9.62325 16.896 9.12725 16.736C8.64725 16.576 7.99125 16.4 7.15925 16.208C5.87925 15.904 4.83125 15.6 4.01525 15.296C3.19925 14.992 2.49525 14.504 1.90325 13.832C1.32725 13.16 1.03925 12.264 1.03925 11.144C1.03925 10.168 1.30325 9.288 1.83125 8.504C2.35925 7.704 3.15125 7.072 4.20725 6.608C5.27925 6.144 6.58325 5.912 8.11925 5.912C9.19125 5.912 10.2393 6.04 11.2633 6.296C12.2873 6.552 13.1833 6.92 13.9513 7.4L12.7513 10.352C11.1993 9.472 9.64725 9.032 8.09525 9.032C7.00725 9.032 6.19925 9.208 5.67125 9.56C5.15925 9.912 4.90325 10.376 4.90325 10.952C4.90325 11.528 5.19925 11.96 5.79125 12.248C6.39925 12.52 7.31925 12.792 8.55125 13.064C9.83125 13.368 10.8793 13.672 11.6953 13.976C12.5113 14.28 13.2073 14.76 13.7833 15.416C14.3753 16.072 14.6713 16.96 14.6713 18.08C14.6713 19.04 14.3993 19.92 13.8553 20.72C13.3273 21.504 12.5273 22.128 11.4553 22.592C10.3833 23.056 9.07925 23.288 7.54325 23.288ZM17.3279 6.2H21.2159V23H17.3279V6.2ZM40.6109 6.2V23H37.4189L29.0429 12.8V23H25.2029V6.2H28.4189L36.7709 16.4V6.2H40.6109ZM55.6498 19.4H47.8498L46.3618 23H42.3777L49.8658 6.2H53.7058L61.2178 23H57.1378L55.6498 19.4ZM54.4258 16.448L51.7618 10.016L49.0978 16.448H54.4258ZM87.4387 6.2L81.9427 23H77.7667L74.0707 11.624L70.2547 23H66.1027L60.5827 6.2H64.6147L68.4067 18.008L72.3667 6.2H75.9667L79.8067 18.104L83.7187 6.2H87.4387Z" fill="black"/>
<circle cx="94" cy="20" r="3" fill="#54D252"/>
</svg>
