<svg width="532" height="393" viewBox="0 0 532 393" fill="none" xmlns="http://www.w3.org/2000/svg">
<ellipse cx="266.5" cy="180.48" rx="225.5" ry="180.48" fill="#C4C4C4"/>
<path fill-rule="evenodd" clip-rule="evenodd" d="M305.788 197.276C311.523 200.956 310.61 208.196 308.884 213.456C306.342 221.202 301.278 228.372 295.503 234.553C285.256 245.517 267.862 257.829 251.828 248.203C237.549 239.63 228.542 222.332 225.433 207.762C224.472 203.259 223.192 196.55 227.707 193.164C234.382 188.16 246.155 189.071 254.212 189.715C259.519 190.139 264.639 191.579 269.882 190.903C282.066 189.331 295.626 190.755 305.788 197.276Z" fill="#4EC63A"/>
<path fill-rule="evenodd" clip-rule="evenodd" d="M58.762 254.654C70.3784 267.698 90.1276 269.758 107.668 269.63C118.201 269.553 128.754 268.851 139.08 266.951C144.647 265.927 150.177 264.57 155.555 262.94C159.108 261.863 164.398 261.324 165.91 257.954C169.898 249.063 166.963 237.913 165.321 228.888C164.486 224.298 163.858 219.68 163.046 215.086C162.526 212.147 162.278 208.895 160.886 206.145C159.256 202.924 157.198 203.567 153.752 204.457C149.004 205.684 144.129 206.194 139.248 206.854C127.334 208.464 116.94 211.711 106.113 216.314C95.4071 220.864 85.0221 225.356 75.4727 231.684C70.6345 234.891 66.4655 238.371 62.5816 242.458C59.5812 245.615 55.1029 250.545 58.762 254.654ZM109.54 312.589C109.633 313.993 127.839 309.753 130.235 309.278C145.954 306.157 161.986 302.602 176.826 296.963C190.678 291.7 202.883 285.678 213.783 276.327C218.864 271.968 223.434 267.378 227.807 262.49C229.999 260.04 232.993 260.324 235.437 258.251C237.636 256.386 239.322 254.929 238.635 252.14C233.141 253.421 222.997 261.475 217.302 257.408C214.056 255.09 218.558 252.668 220.637 251.325C224.544 248.799 227.885 245.683 230.99 242.412C225.658 243.327 220.694 245.095 216.053 247.556C213.991 248.649 206.924 252.613 205.279 248.834C204.266 246.507 209.058 243.584 210.553 242.297C214.221 239.137 218.182 235.448 220.13 231.2C215.314 230.211 210.774 233.505 207.495 236.189C203.854 239.168 199.392 242.295 196.339 245.728C194.764 247.499 194.421 249.59 193.191 251.5C191.807 253.649 189.593 255.49 187.477 257.08C183.399 260.144 178.631 262.4 173.736 264.265C162.55 268.528 150.561 271.545 138.639 273.661C132.789 274.7 127.084 275.178 121.148 275.354C116.533 275.491 114.492 276.712 112.73 280.475C107.963 290.658 108.828 301.859 109.54 312.589ZM246.455 235.003C249.122 237.212 252.588 238.598 255.377 240.722C257.831 242.591 260.661 244.586 263.399 246.097C266.323 247.71 268.507 246.579 271.139 245.119C274.229 243.407 277.781 242.713 280.964 241.18C291.968 235.879 305.431 222.889 303.376 210.961C302.506 205.906 299.553 200.932 294.191 198.638C289.322 196.556 282.243 195.4 277.034 197.141C274.096 198.123 271.993 200.292 270.11 202.423C267.915 204.908 267.074 204.516 264.838 202.12C260.837 197.832 254.24 194.071 247.717 194.161C244.476 194.206 241.256 194.811 238.336 196.002C237.94 196.164 237.72 196.653 237.323 196.818C236.835 197.021 236.034 196.599 235.695 196.789C234.84 197.267 233.986 198.764 233.493 199.524C231.515 202.571 227.952 208.547 231.542 211.113C231.544 211.114 231.382 214.584 231.432 214.98C231.685 217.05 232.494 218.759 233.535 220.652C236.663 226.34 241.281 230.719 246.455 235.003ZM241.136 283.127C243.663 283.823 246.384 276.813 243.961 275.694C241.649 274.626 238.848 282.499 241.136 283.127ZM280.826 274.746C281.701 277.394 282.071 280.399 284.211 282.554C286.17 280.496 286.364 276.698 284.463 274.582C283.378 273.375 279.869 271.852 280.826 274.746ZM199.958 228.35C199.973 228.417 196.918 229.71 198.408 231.125C200.445 233.056 200.165 229.297 199.958 228.35ZM187.334 206.768C187.369 209.446 193.772 208.8 193.727 206.107C193.671 202.792 187.297 203.93 187.334 206.768ZM194.978 184.391C194.344 181.94 183.206 178.53 183.509 182.802C183.661 184.944 196.322 189.603 194.978 184.391ZM309.159 267.524C310.408 268.853 312.181 269.376 313.678 270.396C315.247 271.465 316.369 272.852 317.739 274.107C321.504 277.551 326.035 280.382 330.096 283.547C337.562 289.364 344.713 295.618 352.991 300.552C367.783 309.367 384.937 314.189 401.966 318.411C403.376 318.761 407.44 320.173 408.836 319.121C410.341 317.987 409.576 313.997 409.506 312.488C409.224 306.302 408.409 300.043 408.497 293.866C408.534 291.329 409.373 287.722 407.878 285.401C406.208 282.808 401.546 282.049 398.662 281.074C389.897 278.108 381.453 273.106 373.71 268.473C364.192 262.777 354.579 256.987 344.784 251.67C335.188 246.461 324.603 242.973 313.898 239.997C313.402 240.92 318.51 243.888 319.094 244.305C321.894 246.3 324.941 248.369 327.02 251.003C328.492 252.868 330.001 257.088 325.937 257.196C323.967 257.249 321.055 255.562 319.269 255.017C316.318 254.116 313.278 253.483 310.192 253.071C312.845 255.657 321.838 260.302 320.202 264.603C318.614 268.776 309.432 263.906 306.271 263.906C306.789 265.362 308.091 266.388 309.159 267.524ZM417.644 279.172C423.525 281.002 429.553 282.043 435.622 283.225C441.407 284.352 446.755 285.201 452.68 284.541C460.862 283.631 469.915 280.631 470.952 272.402C472.182 262.652 464.403 253.693 457.724 246.698C449.595 238.187 440.466 230.579 430.573 223.69C420.692 216.807 410.026 210.739 398.852 205.617C390.351 201.72 380.75 199.353 371.761 196.429C370.051 195.873 365.321 193.918 363.722 195.538C362.429 196.848 364.188 199.031 364.778 200.247C365.927 202.619 366.085 205.006 366.382 207.553C367.707 218.925 369.302 230.293 370.036 241.714C370.241 244.897 370.601 248.227 370.391 251.412C370.275 253.176 369.238 255.423 369.929 257.145C371.256 260.456 377.336 262.648 380.559 264.127C386.327 266.774 392.436 268.75 398.263 271.282C404.664 274.064 410.895 277.07 417.644 279.172ZM336.086 205.281C334.472 205.085 332.054 204.696 330.615 205.621C328.738 206.828 329.23 208.508 330.963 209.384C332.332 210.076 335.536 210.265 336.888 209.637C339.192 208.567 338.802 205.612 336.086 205.281ZM327.146 231.613C328.451 233.536 333.218 234.798 332.803 231.209C332.446 228.136 324.744 228.072 327.146 231.613ZM328.916 177.438C326.819 178.157 323.013 178.772 322.391 181.16C321.813 183.382 324.192 183.235 325.909 182.623C327.321 182.121 333.611 177.399 328.916 177.438ZM0.372321 262.213C1.59699 257.994 0.664316 253.323 1.34012 249.002C1.99577 244.814 3.17562 240.965 4.8685 237.017C8.61717 228.278 12.9117 220.411 18.988 212.741C30.4319 198.298 43.7091 185.576 59.7417 175.026C75.5698 164.611 93.0967 156.147 111.663 150.215C131.351 143.924 151.169 141.735 171.931 140.529C178.131 140.169 184.325 139.742 190.49 139.049C194.996 138.542 200.645 137.918 205.1 139.14C207.899 139.908 209.462 142.069 206.413 143.486C204.252 144.492 201.421 144.612 199.034 144.879C201.918 152.989 206.61 161.127 214.047 166.712C221.307 172.164 231.022 174.033 240.185 175.416C245.154 176.165 250.717 176.745 255.763 176.422C258.953 176.218 261.442 174.91 262.729 177.819C263.622 179.84 264.045 182.057 265.223 179.006C266.615 175.398 267.299 175.422 271.631 174.397C280.491 172.302 290.649 170.39 298.378 165.859C306.398 161.158 309.187 153.553 313.663 146.472C314.771 144.722 318.11 141.179 316.404 139.174C314.843 137.34 309.768 137.523 307.445 137.331C304.992 137.129 302.525 137.121 300.064 137.036C298.639 136.988 295.771 137.505 296.345 135.62C297.21 132.779 306.48 133.143 308.783 133.097C313.064 133.012 317.404 133.1 321.663 133.517C342.784 135.584 364.094 139.407 384.531 144.505C424.184 154.396 462.587 172.62 491.525 198.876C519.303 224.078 528.103 266.018 511.026 298.197C502.152 314.921 482.893 321.792 464.223 327.34C454.376 330.267 443.948 332.556 433.481 332.004C428.457 331.738 423.691 330.541 418.791 329.639C416.655 329.245 414.223 328.618 412.029 328.776C410.367 328.896 408.771 330.246 407.213 329.529C406.107 329.02 405.626 327.559 404.274 326.936C402.652 326.189 400.684 325.919 398.932 325.543C394.06 324.495 389.343 322.796 384.581 321.404C379.656 319.963 375.009 318.108 370.285 316.232C367.899 315.285 362.378 311.434 360.823 314.249C360.115 315.534 360.417 318.013 360.244 319.361C359.942 321.718 359.586 324.069 359.198 326.417C358.342 331.584 357.318 336.73 356.268 341.869C354.372 351.143 351.93 360.02 347.847 368.744C344.587 375.709 341.725 383.603 335.671 389.144C333.028 391.563 329.422 392.651 325.632 391.891C321.32 391.026 319.174 387.559 316.556 384.756C310.797 378.588 301.29 373.862 292.51 372.161C281.759 370.077 271.287 373.125 261.025 375.715C250.171 378.454 239.12 381.065 228.466 384.358C218.538 387.428 207.817 391.96 197.05 391.566C187.66 391.222 178.89 384.458 172.118 379.301C165.317 374.123 156.813 366.54 147.033 367.15C142.177 367.453 137.752 369.527 133.022 370.37C127.829 371.295 122.304 371.427 117.024 371.772C110.469 372.2 95.8044 370.687 93.3797 363.707C93.0198 362.671 93.0175 360.539 94.5626 360.125C95.9836 359.744 96.7095 361.214 98.0559 361.147C100.795 361.011 102.935 356.783 104.44 355.147C110.512 348.54 118.842 343.612 125.656 337.643C133.351 330.904 139.92 322.739 145.718 314.686C143.097 314.083 140.269 315.084 137.732 315.56C134.649 316.138 131.646 316.837 128.608 317.577C125.261 318.393 121.865 318.953 118.467 319.576C115.932 320.039 112.567 320.179 110.279 321.304C108.282 322.287 107.167 323.342 104.687 323.627C102.165 323.917 99.5762 323.673 97.0425 323.658C90.1904 323.617 83.3524 323.504 76.5324 322.863C52.4341 320.597 26.8893 311.574 12.3987 293.668C8.45735 288.797 5.2822 283.402 3.27569 277.676C1.70976 273.206 -0.990493 266.907 0.372321 262.213Z" fill="black"/>
<path fill-rule="evenodd" clip-rule="evenodd" d="M226.397 55.9011C220.064 55.9805 214.128 57.6428 208.227 59.5325C203.037 61.1942 197.505 62.7315 193.309 66.0481C185.762 72.0143 183.796 81.8929 182.561 90.3445C181.02 100.891 186.147 109.739 190.462 119.281C194.497 128.204 201.904 135.433 210.709 140.942C215.321 143.828 220.419 145.569 225.753 147.097C231.17 148.648 236.417 150.725 242.214 150.718C251.016 150.706 262.286 147.005 266.036 139.329C267.743 135.834 266.08 135.206 262.664 137.106C257.708 139.862 252.931 142.836 247.14 144.058C235.908 146.43 222.457 142.756 212.608 137.908C202.764 133.061 196.154 125.78 191.737 116.714C187.281 107.569 185.549 98.5562 187.268 88.6961C188.724 80.3403 191.622 72.7079 200.128 68.172C218.492 58.3814 243.233 59.1702 259.564 71.894C261.804 73.6382 264.017 75.3356 266.325 77.0012C267.793 78.0598 269.52 79.33 269.307 81.1609C269.125 82.7286 265.348 88.7735 269.896 86.9168C273.582 85.4112 275.585 82.4681 280.051 82.1038C284.804 81.7157 290.473 84.9477 291.895 89.0155C293.251 92.8968 290.833 98.207 287.045 100.433C284.699 101.812 282.118 101.599 279.455 101.544C278.133 101.516 274.452 101.136 273.578 102.373C272.03 104.561 277.491 106.86 279.253 107.344C283.542 108.522 288.61 107.136 291.076 103.747C293.582 100.302 295.297 96.3153 295.643 92.2111C295.973 88.2789 294.964 84.2977 292.344 81.069C289.556 77.6353 283.874 73.7857 278.78 74.9785C276.569 75.4963 274.793 77.5183 272.623 77.9024C271.254 78.1444 271.83 78.3177 270.695 77.4191C269.975 76.8491 269.294 75.7971 268.629 75.1214C264.806 71.236 261.026 67.0896 256.347 63.9799C247.957 58.4038 236.805 55.7702 226.397 55.9011ZM249.598 132.932C248.605 130.873 246.783 134.546 246.244 135.16C245.177 136.375 242.668 137.32 242.776 139.112C242.955 142.07 247.51 141.522 249.029 139.978C250.758 138.221 250.577 134.965 249.598 132.932ZM217.234 118.925C214.776 122.315 217.771 125.974 219.714 128.974C221.572 131.843 223.298 135.086 225.46 137.783C229.051 142.261 236.862 137.417 237.094 132.815C237.271 129.292 234.452 130.825 232.642 132.141C230.78 133.496 229.897 133.834 227.945 132.354C224.017 129.375 222.252 124.394 219.537 120.622C218.999 119.874 218.023 119.424 217.234 118.925ZM210.228 120.015C209.594 121.654 210.924 125.998 207.228 125.564C205.186 125.324 204.75 122.73 203.677 121.598C200.066 117.792 201.173 124.99 202.117 126.792C204.196 130.762 210.016 133.498 212.902 128.461C213.976 126.587 213.971 124.222 213.426 122.208C213.129 121.111 211.398 116.987 210.228 120.015ZM243.184 112.25C243.511 114.163 245.543 117.974 243.063 119.342C240.881 120.547 237.081 117.931 235.4 116.839C233.654 115.704 229.697 112.448 229.542 116.5C229.463 118.565 231.799 121.043 233.465 122.233C237.021 124.771 244.409 127.047 247.03 122.271C248.457 119.669 247.676 115.965 246.733 113.343C245.968 111.218 242.394 107.63 243.184 112.25ZM196.547 101.778C195.1 103.265 191.67 106.597 193.535 108.716C195.715 111.192 199.258 106.649 200.655 105.385C201.913 104.246 204.56 101.002 203.431 99.2818C201.563 96.4349 197.818 100.472 196.547 101.778ZM219.291 95.3727C214.561 98.1003 220.78 100.064 223.474 100.308C226.735 100.603 230.904 100.798 233.899 99.3819C238.144 97.3743 236.729 94.3418 232.614 93.6159C228.395 92.8721 222.962 93.2556 219.291 95.3727ZM280.782 86.6896C277.303 87.2888 273.331 88.0684 272.146 91.4251C270.923 94.8942 272.68 96.0455 276.233 95.2646C279.52 94.5418 284.43 93.8143 286.289 90.9721C288.509 87.5764 284.007 86.1348 280.782 86.6896Z" fill="black"/>
<path fill-rule="evenodd" clip-rule="evenodd" d="M472.172 161.232C473.339 164.568 479.247 166.782 482.193 168.81C492.499 175.906 502.569 183.295 511.885 191.394C516.721 195.598 520.381 200.683 524.574 205.358C525.597 206.499 527.41 209.055 529.417 208.815C531.618 208.552 532.063 205.196 531.993 203.73C531.753 198.731 526.595 193.904 522.917 190.462C518.78 186.592 514.356 182.82 509.839 179.296C504.865 175.416 499.468 172.081 493.968 168.816C488.567 165.61 483.388 161.907 477.771 159.003C475.126 157.635 470.732 157.115 472.172 161.232ZM111.945 129.543C107.643 129.663 103.446 130.911 99.3893 132.071C90.4658 134.622 81.9668 138.16 73.5862 141.858C58.8933 148.341 44.7538 156.184 31.793 165.102C29.0836 166.966 26.306 168.476 23.3599 170C21.4743 170.977 18.7858 172.168 18.0594 174.158C16.2142 179.215 25.5279 174.139 26.8497 173.413L28.7089 172.392C56.2854 157.264 83.83 142.565 115.023 133.889C116.685 133.427 117.201 132.115 116.33 130.814C115.385 129.405 113.543 129.498 111.945 129.543ZM473.427 140.128C473.626 141.668 475.597 142.019 476.926 142.513C481.885 144.357 486.968 145.929 491.914 147.804C501.093 151.282 509.523 156.331 519.104 158.971C521.293 159.576 521.616 157.62 521.03 156.289C520.377 154.803 518.416 153.76 516.998 152.901C512.907 150.42 508.267 148.636 503.724 146.913C499.22 145.203 494.582 143.91 489.964 142.477C485.672 141.145 480.69 138.665 476.081 138.482L475.88 138.473C474.413 138.408 473.195 138.32 473.427 140.128ZM104.116 116.733C108.501 115.641 104.358 113.183 101.752 113.356C98.8442 113.549 96.0339 114.764 93.2766 115.497C84.8464 117.737 77.0323 120.188 69.1569 123.665C67.9824 124.185 62.808 126.646 66.2307 127.736C68.6029 128.491 74.1427 125.251 76.1793 124.474C85.1291 121.058 94.7457 119.065 104.116 116.733Z" fill="black"/>
<path fill-rule="evenodd" clip-rule="evenodd" d="M278.937 124.687C278.389 123.264 271.609 107.701 274.262 107.232C277.073 106.734 280.831 115.763 281.646 117.395C284.658 123.42 286.441 129.885 287.838 136.347C288.811 140.847 289.667 145.457 289.326 150.058C289.064 153.593 287.414 154.129 284.695 156.295C284.695 145.556 282.852 134.852 278.937 124.687Z" fill="black"/>
<path fill-rule="evenodd" clip-rule="evenodd" d="M424.129 82.6513C429.889 80.5171 436.457 80.0443 442.735 85.7251C448.441 90.8879 449.756 98.3571 448.023 103.765C446.149 109.615 441.044 113.844 433.836 113.668C426.248 113.481 419.265 107.522 417.427 100.375C415.375 92.3992 419.106 87.0992 424.129 82.6513ZM418.657 82.0321C413.828 86.8566 412.708 95.1169 416.393 102.715C420.191 110.547 428.352 116.452 436.742 116.458C453.697 116.472 457.161 94.9015 442.367 82.8636C438.611 79.8071 434.365 78.3483 430.047 77.9977C425.28 77.6102 421.892 79.8134 418.657 82.0321Z" fill="black"/>
<path fill-rule="evenodd" clip-rule="evenodd" d="M487.45 101.2C484.465 102.708 481.364 104.066 478.396 105.588C475.585 107.029 473.052 108.252 469.52 108.484C471.717 105.213 473.973 101.995 476.292 98.8128C477.443 97.2344 478.564 95.6292 479.75 94.0787C480.668 92.8788 481.562 91.9396 480.65 90.056C479.588 87.8634 478.294 89.1843 477.745 90.2976C476.987 91.833 475.898 93.2078 474.997 94.6688C472.986 97.9293 470.872 101.108 468.737 104.281C468.073 105.267 463.605 110.282 467.519 111.066C469.194 111.402 471.557 110.605 473.193 110.552C475.292 110.484 477.057 109.825 478.853 109.145C482.598 107.727 486.076 105.796 489.776 104.259C491.666 103.474 493.555 102.69 495.445 101.905C496.551 101.445 496.899 101.18 496.063 99.794C495.456 98.7869 494.434 98.0606 493.499 97.3205C491.125 95.4395 488.711 93.6032 486.304 91.7651C485.386 91.0635 481.832 87.6523 480.841 87.6882C478.593 87.7696 484.18 92.039 484.835 92.5817C487.306 94.6281 489.839 96.6067 492.151 98.816C490.599 99.6324 489.045 100.441 487.45 101.2Z" fill="black"/>
<path fill-rule="evenodd" clip-rule="evenodd" d="M482.025 107.478C481.705 107.713 481.384 107.947 481.068 108.179C481.39 107.943 481.708 107.711 482.025 107.478Z" fill="black"/>
<path fill-rule="evenodd" clip-rule="evenodd" d="M487.45 101.2C488.04 100.92 488.629 100.639 489.217 100.358C488.627 100.639 488.039 100.92 487.45 101.2Z" fill="black"/>
</svg>
