<svg width="37" height="37" viewBox="0 0 37 37" fill="none" xmlns="http://www.w3.org/2000/svg">
<path d="M32.375 15.4167C32.375 26.2083 18.5 35.4583 18.5 35.4583C18.5 35.4583 4.625 26.2083 4.625 15.4167C4.625 11.7368 6.08683 8.20762 8.68889 5.60555C11.291 3.00348 14.8201 1.54166 18.5 1.54166C22.1799 1.54166 25.709 3.00348 28.3111 5.60555C30.9132 8.20762 32.375 11.7368 32.375 15.4167Z" stroke="#00FF00" stroke-width="2" stroke-linecap="round" stroke-linejoin="round"/>
<path d="M18.5 20.0417C21.0543 20.0417 23.125 17.971 23.125 15.4167C23.125 12.8623 21.0543 10.7917 18.5 10.7917C15.9457 10.7917 13.875 12.8623 13.875 15.4167C13.875 17.971 15.9457 20.0417 18.5 20.0417Z" stroke="#00FF00" stroke-width="2" stroke-linecap="round" stroke-linejoin="round"/>
</svg>
