<svg width="117" height="163" viewBox="0 0 117 163" fill="none" xmlns="http://www.w3.org/2000/svg">
<ellipse cx="67.5" cy="122" rx="42.5" ry="40" fill="#C4C4C4"/>
<mask id="mask0_23_142" style="mask-type:alpha" maskUnits="userSpaceOnUse" x="-1" y="-1" width="118" height="164">
<path d="M106.739 121.304C112.101 191.346 34.1176 149.727 34.1176 149.727L0 68.0114L28.2689 0L82.8571 9.64341L116 43.6491L106.739 121.304Z" fill="#C4C4C4" stroke="#1B1717"/>
</mask>
<g mask="url(#mask0_23_142)">
<path fill-rule="evenodd" clip-rule="evenodd" d="M58.1893 28L57.9281 28.005C50.8379 28.2155 44.5853 33.3053 39.7358 38.6918C37.3379 41.3552 35.1512 44.488 34.1221 48.1335C32.9338 52.3446 33.3248 56.9766 34.2289 61.203C36.2262 70.543 38.6673 79.9312 41.4122 89.0338C42.763 93.5115 44.7215 97.9021 45.7409 102.485C46.5814 106.261 43.0423 109.011 42.9069 112.891C42.7702 116.806 45.1311 120.483 48.3751 121.882C49.7568 122.478 51.4284 121.98 52.7022 122.591C53.8671 123.149 54.275 124.796 54.4987 126.06C54.8034 127.785 54.7486 129.508 54.6619 131.248C54.6087 132.312 54.8465 134.049 54.381 134.998C54.0613 135.65 53.4789 135.863 52.9771 136.309C52.2922 136.918 51.8359 137.676 51.2353 138.376C50.2454 139.53 49.2929 140.156 49.024 141.84C48.8809 141.458 48.7378 141.075 48.5952 140.693C47.8571 142.199 47.3101 142.921 48.0119 144.35C45.8348 144.112 44.545 148.518 43.9742 150.189C42.929 153.247 42.2111 156.424 41.1635 159.483C39.7278 163.678 37.8414 167.818 36.9252 172.207C36.1557 175.896 35.5466 179.685 34.8626 183.4C34.4772 185.491 34.1415 187.616 33.4365 189.61C33.1624 190.384 32.6537 190.906 32.3385 191.596C31.9076 192.541 32.0761 193.04 32.0555 194.074C32.0192 195.919 30.9761 197.116 30.648 198.908C30.2977 200.823 30.0115 202.758 29.658 204.677C28.9457 208.541 27.6264 212.399 27.3088 216.313C26.94 220.858 26.1488 225.347 25.7509 229.893C25.4027 233.865 25.9944 238.13 25.2507 241.973C24.5913 245.384 25.4087 248.502 25.6997 251.889C25.7735 252.749 24.5864 257.868 26.4942 256.885C26.1359 258.092 25.6336 258.667 25.6066 259.991C25.5816 261.229 25.8678 262.502 26.1016 263.703C26.553 266.023 26.8537 268.552 27.7381 270.725C28.7381 273.184 30.2622 273.479 32.3341 274.322C33.7368 274.893 36.2625 276.931 37.3677 274.751C38.0268 276.989 39.3134 275.442 40.7556 275.317C40.746 275.318 41.5811 275.662 41.7375 275.686C42.2446 275.762 42.844 275.496 43.3486 275.449C44.6067 275.332 45.8409 275.52 47.0715 275.804C49.9072 276.46 52.6506 277.366 55.5282 277.823C61.1491 278.715 66.6576 278.293 72.2867 278.684C83.3029 279.448 94.5013 278.807 105.526 278.476C106.709 278.44 107.985 278.625 109.152 278.422C110.411 278.203 110.686 277.539 111.667 276.873C113.297 275.768 115.106 276.843 116.797 277.247C121.763 278.433 126.949 278.52 131.955 279.667C142.125 281.997 151.495 286.595 161.236 290.473C165.459 292.155 170.416 294.877 174.97 294.998C180.489 295.129 179.185 289.065 178.171 285.166C181.36 286.111 186.367 290.426 189.608 287.922C193.471 284.938 188.556 279.977 188.325 276.469C195.228 278.068 203.06 281.574 210.067 278.724C211.415 278.176 212.588 277.017 214.036 276.828C215.541 276.632 217.131 277.225 218.652 277.215C222.118 277.19 225.483 276.676 228.948 277.152C236.672 278.213 244.287 278.794 252.073 279.023C259.913 279.253 267.752 279.771 275.595 279.75C279.576 279.739 283.63 279.212 287.603 279.448C289.163 279.541 292.52 280.805 293.616 279.036C294.717 280.508 295.651 279.525 297.063 279.688C296.801 279.658 297.798 280.301 297.948 280.363C298.69 280.67 299.384 280.577 300.159 280.568C302.222 280.544 304.15 281.622 306.204 281.517C306.723 281.491 307.115 281.323 307.556 281.124C307.66 281.077 307.635 280.576 307.803 280.534C308.807 280.283 308.548 280.969 309.185 281.316C309.892 281.699 310.938 281.079 310.536 282.258C312.454 282.164 314.272 282.885 316.017 281.616C315.192 283.65 318.074 281.96 318.828 281.927C320.08 281.871 321.176 282.569 322.425 282.73C323.922 282.923 325.427 282.148 326.892 282.621C328.04 282.991 328.433 283.882 329.628 283.426C330.643 283.04 331.277 282.199 331.769 281.28C332.449 280.013 332.536 279.447 334.175 279.425C335.39 279.408 336.612 279.7 337.839 279.697C339.245 279.694 340.79 279.528 342.073 280.273C343.456 281.076 344.268 282.299 345.802 282.928C352.697 285.756 360.266 285.008 367.46 284.96C370.495 284.939 372.723 285.251 373.575 281.388C374.295 278.125 374.583 274.713 375.27 271.422C376.112 267.391 377.037 263.651 378.904 260.047C380.716 256.552 382.24 252.941 383.817 249.31C387.097 241.759 391.663 235.335 396.754 229.199C398.688 226.867 400.905 224.27 400.998 220.913C401.061 218.014 399.916 215.01 398.415 212.701C397.074 210.64 394.865 208.314 392.366 208.795C390.862 209.085 389.875 210.439 388.752 211.454C387.525 212.564 386.188 213.321 384.709 213.926C381.259 215.337 378.366 216.882 375.379 219.318C372.356 221.784 369.531 224.545 366.917 227.535C361.899 233.275 356.757 239.238 353.874 246.67C352.737 249.598 352.011 252.422 351.237 255.458C350.476 258.44 348.404 257.618 346.074 257.19C343.235 256.667 340.381 256.387 337.523 256.056C336.447 255.931 334.93 255.895 334.283 254.76C333.568 253.51 334.387 251.89 334.452 250.593C334.486 249.9 334.28 249.389 334.229 248.713C334.169 247.944 334.373 247.243 334.374 246.477C334.375 244.831 333.684 243.365 332.537 242.369C330.389 240.502 327.257 239.39 324.715 238.363C321.244 236.961 317.525 236.272 313.95 235.272C309.926 234.145 305.877 233.13 301.83 232.106C297.854 231.101 293.884 230.067 289.866 229.292C287.508 228.838 284.951 229.004 282.666 228.174C280.238 227.292 280.64 224.566 280.647 222.151C280.659 218.162 280.217 214.056 279.693 210.113C278.579 201.73 275.925 193.526 273.513 185.515C271.188 177.8 268.309 170.395 263.556 164.134C258.929 158.039 253.25 152.523 247.359 147.993C241.221 143.273 234.391 139.864 227.983 135.65C229.384 134.455 231.054 133.436 231.858 131.596C232.767 129.519 232.382 127.035 232.343 124.815C232.3 122.31 232.231 120.111 231.429 117.724C230.99 116.417 229.293 113.937 229.553 112.516C229.989 110.129 234.67 108.386 236.393 107.404C239.096 105.863 241.805 104.298 244.296 102.353C246.686 100.488 248.935 98.242 250.384 95.3781C250.794 94.5655 251.133 93.7121 251.395 92.8262C251.687 91.8379 251.483 91.5011 252.368 91.4287C253.782 91.3127 255.901 92.8955 257.093 93.5947C263.234 97.1997 269.978 102.051 277.224 101.729C279.853 101.613 282.808 100.691 283.737 97.6327C284.961 93.606 282.406 89.4461 280.164 86.5377C284.537 87.3043 292.601 89.7006 296.052 85.3478C298.352 82.4475 296.617 77.8438 294.689 75.3288C292.141 72.0067 288.509 69.9841 285.154 67.8702C289.271 66.1192 293.828 64.9995 297.449 62.0695C300.912 59.2676 300.483 54.963 297.749 51.6579C294.825 48.1249 289.712 46.3155 285.691 45.0038C280.759 43.3949 275.859 43.5239 270.776 43.6319C261.655 43.8252 253.819 47.5763 246.338 53.2475C242.382 56.2463 238.483 59.4826 234.974 63.1145C231.684 66.5208 228.173 69.6882 224.931 73.1313C221.789 76.4674 219.318 80.6007 216.002 83.7173C213.183 86.3672 210.091 90.1233 206.51 91.2996C202.711 92.547 199.292 94.6101 195.462 95.8381C191.117 97.2307 187.384 99.5595 183.357 101.781C166.458 111.106 148.317 117.174 130.5 123.868C121.388 127.292 112.214 129.705 102.911 132.32C98.2387 133.633 93.9003 134.334 89.079 134.096C87.9673 134.042 86.9056 134.009 85.8092 134.182C85.0055 134.307 84.3944 134.647 83.6757 134.111C82.643 133.341 82.2549 131.337 81.6394 130.196C85.0704 129.01 88.4293 127.726 89.9948 123.803C90.9812 121.331 91.4931 118.449 91.9256 115.797C92.1578 114.369 92.163 112.929 92.3613 111.501C92.4701 110.712 92.8063 109.888 92.7805 109.082C92.8575 109.53 95.4143 108.056 95.7851 107.782C97.2156 106.725 97.476 104.594 97.4643 102.795C97.4506 100.764 96.9008 98.5307 95.6642 96.9901C95.0789 96.2608 94.3824 95.714 93.5315 95.4392C92.9276 95.2441 92.1312 95.4995 91.5987 95.303C89.2366 94.432 88.9722 87.9114 88.6373 85.5376C87.8988 80.3071 87.1632 75.3135 85.5694 70.2998C82.6636 61.1589 78.9238 52.2753 74.4693 43.9529C70.6527 36.8215 66.8395 28.1017 58.4476 28H58.1893ZM130.735 247.581C134.131 248.237 137.386 249.577 140.667 250.713C143.731 251.775 146.837 252.451 149.98 253.14C156.236 254.514 162.63 255.77 168.796 257.561C170.532 258.065 171.445 259.202 172.96 259.993C174.083 260.58 175.137 259.986 176.305 259.936C178.848 259.827 181.67 260.753 184.116 261.443C189.89 263.07 195.013 265.896 200.238 269.021C200.706 269.3 203.867 270.914 203.717 271.583C203.595 272.128 199.577 270.663 198.937 270.555C195.701 270.005 192.54 268.867 189.328 268.16C186.692 267.58 184.025 267.187 181.4 266.542C178.478 265.825 172.255 263.332 172.007 268.715C171.74 274.533 177.499 276.322 180.961 279.036C180.575 279.779 175.021 277.331 174.333 277.083C171.971 276.234 169.78 274.703 167.376 274.051C163.193 272.916 163.699 278.07 166.009 280.363C168.575 282.91 172.818 283.68 174.239 287.6C172.373 288.351 169.934 286.94 168.22 286.239C165.969 285.319 163.71 284.412 161.445 283.535C156.362 281.564 151.534 278.85 146.424 276.972C135.939 273.121 124.856 272.017 113.896 271.332C114.872 267.106 115.94 262.904 116.818 258.65C117.194 256.829 117.537 255 117.822 253.159C118.02 251.878 117.851 248.814 118.642 247.804C119.605 246.573 122.113 248.301 123.478 248.269C124.815 248.236 125.79 247.466 127.026 247.224C128.199 246.993 129.587 247.359 130.735 247.581ZM327.743 272.046C327.743 274.066 328.057 276.517 325.674 276.753C323.748 276.944 319.979 277.189 318.442 275.661C319.914 274.86 321.588 274.72 323.153 274.258C324.783 273.777 326.288 272.986 327.743 272.046ZM288.424 235.233C289.148 235.239 290.371 236.138 291.032 236.389C292.242 236.848 293.471 237.235 294.706 237.599C298.417 238.696 303.195 238.867 304.898 243.31C305.749 245.528 306.339 251.231 309.294 251.21C311.921 251.191 313.494 246.962 315.368 245.457C317.305 243.902 320.376 244.96 322.464 245.636C324.587 246.322 327.881 247.202 327.643 250.203C327.471 252.36 327.122 254.324 327.139 256.528C327.159 259.333 327.372 262.133 327.372 264.938C325.882 262.661 324.582 258.082 321.942 257.166C319.274 256.24 317.766 261.439 317.072 263.431C316.212 265.9 315.131 268.7 315.066 271.375C315.045 272.215 315.502 274.523 314.979 275.214C314.514 275.827 312.726 275.382 312.149 275.315C308.574 274.9 305.018 274.383 301.432 274.037C299.59 273.86 299.088 273.409 299.269 271.198C299.41 269.463 299.454 267.808 299.259 266.066C298.388 258.286 294.094 251.17 286.833 249.819C282.457 249.005 277.347 249.6 272.979 250.382C271.296 250.683 269.468 251.593 267.757 251.514C266.493 251.455 266.9 251.375 266.642 250.048C266.461 249.121 266.073 248.329 265.441 247.686C264.941 247.178 264.307 247.465 263.835 246.801C263.494 246.32 263.546 245.666 263.385 245.112C263.071 244.034 262.503 242.579 261.373 242.307C259.555 241.869 257.622 244.585 256.704 245.985C255.756 247.434 255.47 251.758 253.945 252.324C252.185 252.976 250.092 250.404 249.725 248.783C249.232 246.603 249.854 244.245 250.151 242.086C250.172 241.931 250.258 240.497 250.354 240.403C250.611 240.151 252.545 240.221 252.888 240.203C254.573 240.113 256.261 240.109 257.948 240.104C264.561 240.085 271.04 239.36 277.609 238.586C276.655 240.322 275.021 243.171 276.698 245.003C277.941 246.36 280.184 245.679 281.744 245.959C283.949 246.354 287.666 248.688 289.767 246.981C292.728 244.576 289.379 240.442 288.279 238.169C288.044 237.681 287.171 235.966 287.541 235.395C287.861 234.9 287.955 235.229 288.424 235.233ZM337.739 261.97C339.251 262.484 340.774 262.979 342.319 263.36C344.131 263.808 346.94 263.373 347.822 265.597C348.492 267.288 348.16 270.015 347.615 271.699C346.991 273.628 345.526 274.124 343.798 274.271C341.781 274.443 339.737 274.08 337.744 273.772C336.958 273.651 336.121 273.432 335.323 273.431C334.849 273.429 333.893 273.913 333.472 273.517C332.926 273.005 333.285 270.096 333.328 269.398C333.434 267.671 333.728 265.967 333.808 264.237C333.865 262.995 333.445 261.306 334.751 261.041C335.564 260.876 337.032 261.73 337.739 261.97ZM215.645 227.779C216.775 227.997 217.899 228.153 219.046 228.134C219.753 228.121 220.6 227.853 221.253 228.286C222.46 229.085 222.28 231.19 222.239 232.503C222.189 234.097 222.064 235.714 221.911 237.3C221.766 238.816 221.02 241.313 222.073 242.612C222.816 241.705 223.183 238.74 224.616 238.848C226.193 238.967 225.464 241.777 225.324 242.784C224.551 248.346 223.671 253.912 222.98 259.491C222.652 262.144 222.228 264.776 222.008 267.442C221.861 269.23 221.812 270.841 220.02 271.212C218.359 271.555 216.493 270.969 214.814 270.924C213.085 270.877 212.095 270.747 211.101 269.004C213.482 268.422 217.254 268.778 218.595 265.968C220.159 262.691 216.86 259.742 215.237 257.502C213.991 255.781 211.444 250.061 209.131 253.459C208.298 254.682 208.148 256.548 207.727 257.971C207.043 260.283 206.208 262.561 205.388 264.816C197.887 260.496 190.19 256.602 182.009 254.177C184.095 250.245 186.677 246.704 188.238 242.441C189.987 237.665 191.436 232.757 193.225 227.996C196.06 229.842 199.092 225.366 201.916 225.186C206.376 224.901 211.272 226.933 215.645 227.779ZM260.078 259.982C261.633 261.016 263.92 263.025 264.294 265.103C264.939 268.694 261.264 266.293 260.13 265.507C257.756 263.862 255.429 263.336 252.702 264.35C249.205 265.65 245.982 267.845 242.229 266.178C240.361 265.347 236.219 263.574 237.337 260.392C238.107 258.198 240.363 260.08 241.555 260.866C244.675 262.925 247.259 261.621 250.378 260.134C253.496 258.648 257.008 257.943 260.078 259.982ZM370.826 241.552C372.075 243.526 369.537 243.099 368.423 243.292C366.093 243.693 363.693 245.766 364.336 248.699C364.962 251.558 367.414 253.345 367.882 256.347C368.283 258.924 367.896 262.187 365.665 263.602C364.412 264.396 361.673 264.724 360.412 263.811C358.486 262.417 360.878 260.341 362.152 259.651C363.84 258.736 365.204 258.24 364.368 255.837C363.35 252.906 361.371 250.657 361.547 247.304C361.692 244.526 363.007 241.369 365.401 240.215C367.116 239.389 369.657 239.702 370.826 241.552ZM200.377 233.035C198.219 232.932 198.133 235.842 198.242 237.273C198.39 239.229 198.072 241.314 198.035 243.277C197.986 245.876 197.499 254.39 201.619 253.125C204.269 252.312 206.45 249.479 208.58 247.659C210.54 245.983 215.522 243.974 215.845 240.797C216.209 237.21 212.281 236.538 210.03 235.968C206.816 235.154 203.697 233.194 200.377 233.035ZM210.89 138.475C214.312 138.843 217.715 139.41 220.972 140.678C223.176 141.536 226.56 142.151 228.122 144.257C229.473 146.078 228.887 148.673 229.326 150.824C229.92 153.734 231.721 153.336 233.468 151.519C235.558 149.344 236.163 147.769 239.072 149.81C245.096 154.036 249.873 160.275 254.651 166.055C250.956 167.304 243.707 167.606 242.48 172.756C241.809 175.572 243.832 177.62 245.649 179.156C247.995 181.141 250.444 182.976 252.739 185.04C254.881 186.966 259.683 194.634 261.042 187.892C261.883 183.719 260.307 179.406 260.975 175.283C263.881 180.509 266.831 185.723 269.495 191.109C271.762 195.694 273.081 200.599 274.168 205.668C272.473 205.792 270.708 204.832 269.032 205.399C267.418 205.945 266.663 207.648 266.55 209.413C266.357 212.404 267.595 215.449 268.218 218.322C268.646 220.295 269.137 224.774 271.292 225.416C273.747 226.147 275.288 221.934 276.383 220.221C277.425 222.009 277.408 224.623 277.56 226.673C277.665 228.081 278.369 230.715 276.949 231.494C275.619 232.223 272.816 231.309 271.395 231.242C268.757 231.117 266.068 230.879 263.429 230.966C260.936 231.048 257.268 232.535 256.295 229.117C255.631 226.79 255.047 218.427 251.511 222.964C249.94 224.979 248.711 227.276 247.193 229.329C245.662 231.4 244.271 231.536 241.984 231.431C237.459 231.224 233.039 232.194 228.611 232.976C224.725 233.663 225.235 229.984 225.293 226.709C225.381 221.631 224.478 216.322 223.986 211.273C222.816 199.266 220.413 187.404 216.718 176.049C219.809 174.874 225.352 179.613 227.637 176.014C229.517 173.056 227.103 168.98 226.12 166.215C224.894 162.765 224.274 159.16 222.275 156.102C221.644 155.137 220.746 153.843 219.525 154.168C218.477 154.448 218.059 155.939 217.47 156.78C215.598 159.45 213.207 161.452 211.543 164.365C210.525 166.147 209.733 168.05 209.403 170.142C209.312 170.717 209.427 171.895 209.064 172.378C207.939 173.873 204.395 173.851 202.82 174.768C197.442 177.899 195.552 187.012 193.463 192.759C192.875 194.378 192.292 196 191.979 197.715C191.77 198.862 191.78 200.32 191.223 201.348C190.006 203.593 186.225 201.588 184.369 201.241C181.26 200.658 178.165 200.102 175.043 199.613C173.138 199.315 170.365 198.545 168.914 200.427C167.409 202.379 168.274 205.454 169.03 207.548C170.263 210.966 171.838 214.231 173.139 217.618C174.177 220.32 174.694 223.8 176.688 225.882C178.416 227.686 181.275 228.203 183.309 226.735C184.47 225.897 187.45 217.793 188.237 218.155C186.817 224.414 184.735 230.797 182.536 236.771C181.861 238.606 180.701 242.347 178.995 243.343C177.581 244.168 174.371 242.609 172.924 242.307C171.552 242.02 168.844 240.777 167.532 241.687C165.941 242.792 165.748 245.737 165.569 247.565C165.436 248.921 165.677 249.933 164.198 249.865C163.157 249.818 162.106 249.252 161.106 248.967C158.786 248.306 156.377 247.869 154.015 247.444C148.551 246.459 143.089 245.478 137.628 244.469C132.933 243.601 128.299 243.606 124.056 241.122C121.906 239.863 119.441 239.478 117.151 238.636C114.88 237.801 112.616 237.259 110.239 236.945C105.044 236.26 99.9884 235.589 94.854 234.414C92.0441 233.772 89.2395 233.099 86.4445 232.379C83.9567 231.738 81.5515 230.72 79.0758 230.092C77.016 229.569 75.3243 229.962 74.4419 227.354C73.8091 225.484 73.9562 223.388 73.7938 221.43C73.0509 212.487 75.8584 203.493 76.4328 194.598C76.619 191.718 76.6762 188.828 76.8701 185.95C76.9588 184.631 76.9052 180.791 78.2845 180.08C78.4099 181.135 78.3123 182.909 79.3865 183.432C78.8617 183.177 79.5506 186.293 79.5877 186.605C79.7344 187.849 79.3684 189.18 79.5615 190.401C79.4083 190.83 79.4752 191.153 79.7614 191.371C79.9565 191.547 80.0988 191.77 80.1875 192.04C80.2012 192.91 79.9726 192.397 79.9617 192.698C79.8537 195.691 80.3072 198.793 80.1133 201.859C79.9081 205.1 79.2596 208.279 78.767 211.475C78.3248 214.344 77.8484 217.219 77.4796 220.101C77.2208 222.123 77.0289 224.445 78.0044 226.286C79.8565 229.781 85.2187 229.401 88.3418 229.973C93.5327 230.923 98.7308 231.781 103.941 232.588C105.941 232.898 107.965 233.606 109.988 233.641C112.15 233.679 113.307 232.705 114.67 230.925C117.416 227.34 119.186 223.268 121.473 219.368C122.758 217.177 123.827 216.6 125.989 215.931C127.998 215.31 129.61 213.675 131.244 212.316C134.676 209.459 139.109 206.353 141.362 202.147C143.732 197.72 140.392 196.251 137.193 195.043C137.972 192.735 139.498 190.882 140.756 188.897C142.185 186.639 143.482 184.295 145.021 182.122C148.159 177.694 151.293 173.29 154.338 168.779C156.94 164.924 159.571 161.272 162.892 158.149C166.229 155.012 169.943 152.442 173.607 149.816C175.521 148.444 178.88 144.938 181.299 145.297C183.646 145.645 184.573 150.52 185.16 152.569C185.832 154.921 186.07 158.199 187.637 160.05C189.94 162.771 192.332 158.486 193.431 156.511C195.443 152.893 197.503 149.308 199.513 145.687C200.429 144.036 201.752 142.466 202.295 140.594C202.302 140.572 202.556 138.963 202.299 139.188L202.282 139.206L202.299 139.184C202.874 138.549 204.997 138.417 205.791 138.34L205.864 138.333C207.534 138.157 209.224 138.296 210.89 138.475ZM233.323 239.913C235.247 239.9 237.165 240.149 239.081 240.324C240.763 240.478 242.304 240.191 243.984 240.078C246.061 239.939 247.089 240.181 246.61 242.575C246.262 244.317 245.844 246.636 244.241 247.372C242.076 248.367 239.159 248.233 236.852 248.61C235.158 248.886 233.469 249.136 231.782 249.451C230.662 249.661 230.087 249.88 229.563 248.464C229.124 247.277 229.407 245.692 229.556 244.466C229.671 243.525 229.602 241.871 230.001 241.034C230.595 239.785 232.153 239.921 233.323 239.913ZM143.632 216.045C140.805 218.928 138.903 222.613 136.769 226.107C135.466 228.241 132.916 231.643 134.767 234.23C136.345 236.435 140.012 235.93 142.219 236.037C145.686 236.203 148.518 237.951 151.818 238.853C160.128 241.124 153.226 225.54 152.075 222.288C151.267 220.007 150.434 217.736 149.457 215.536C149.016 214.545 148.137 211.653 147.042 211.275C145.454 210.726 144.637 215.02 143.632 216.045ZM215.034 183.281C216.355 186.098 216.569 189.996 217.196 193.073C219.11 202.479 220.229 212.058 221.109 221.645C216.732 219.709 212.112 219.575 207.49 219.101C204.142 218.757 201.067 218.364 197.718 218.523C197.147 218.55 195.505 218.874 195.035 218.332C194.403 217.605 195.168 215.578 195.355 214.813C196.37 210.662 196.816 206.371 197.97 202.245C199.146 198.037 200.576 193.835 202.097 189.767C203.209 186.792 204.738 183.89 207.434 182.431C209.794 181.154 213.569 180.157 215.034 183.281ZM233.06 201.588C231.257 204.621 228.972 207.274 227.211 210.335C225.962 212.507 224.5 216.523 227.5 217.903C228.552 218.388 229.796 218.178 230.899 218.2C232.605 218.233 234.295 218.396 236.004 218.351C237.62 218.308 239.221 218.089 240.834 217.995C241.85 217.936 243.126 218.024 244.021 217.372C246.421 215.626 244.686 212.061 243.913 209.78C243.092 207.357 241.984 205.065 240.915 202.769C240.174 201.176 239.065 197.931 237.379 197.281C235.382 196.512 233.892 200.189 233.06 201.588ZM145.612 167.223C141.648 172.365 138.207 177.973 134.966 183.701C133.385 186.496 131.849 189.324 130.315 192.152C129.312 194.003 128.559 196.37 127.337 198.047C124.549 201.87 123.773 193.528 123.362 191.714C121.846 185.027 119.969 178.394 118.299 171.749L120.011 171.749C126.833 171.745 133.374 171.632 140.016 169.39C141.896 168.756 143.611 167.378 145.612 167.223ZM160.022 168.519C157.864 170.297 144.05 180.736 149.86 184.764C151.063 185.598 153.028 185.22 154.387 185.34C156.128 185.493 157.897 185.681 159.617 186.025C161.844 186.471 164.008 187.248 166.245 187.642C168.024 187.956 170.381 188.321 171.971 187.086C174.592 185.047 173.001 181.043 172.136 178.451C170.905 174.768 169.74 169.838 166.687 167.645C165.977 167.134 165.107 165.312 164.342 165.145C163.146 164.883 160.897 167.799 160.022 168.519ZM83.8087 81.9277C84.8503 82.8167 84.8979 84.663 85.1679 85.9661C86.0765 90.3495 87.3446 94.6164 88.0971 99.0465C88.8307 103.367 89.0613 107.621 88.7014 112C88.4611 114.921 88.4333 118.514 86.8419 121.001C84.9374 123.977 81.1661 123.825 78.3139 124.706C75.5698 125.554 72.849 128.181 75.8422 130.911C76.906 131.881 78.3026 132.039 79.3543 132.973C80.6514 134.127 81.3963 136.193 81.9473 137.883C82.4012 139.275 82.3879 139.54 81.0323 140.032C80.4132 140.256 79.7876 140.399 79.1362 140.338C77.6529 140.201 76.3296 139.108 75.0877 138.287C71.9203 136.193 68.2619 133.397 64.4802 133.081C63.2713 132.981 61.8972 133.532 60.7219 133.094C59.6267 132.686 59.9628 132.436 59.7726 131.299C59.0192 126.795 58.7133 122.375 56.6548 118.3C55.6386 116.29 52.9525 112.177 51.1519 115.307C50.4002 116.614 50.1281 117.253 48.4601 116.852C47.103 116.526 45.612 115.328 45.8812 113.58C46.1348 111.93 48.0796 110.807 49.2582 110.084C50.8282 109.121 51.929 109.232 53.6385 109.004C58.3356 108.378 55.0424 100.714 54.3653 97.8387C53.9396 96.0315 53.4418 93.6954 54.5592 92.0636C56.2598 89.5814 59.9645 90.3976 62.2983 90.7497C65.5258 91.2367 69.0491 91.4961 72.0698 89.862C75.2654 88.1335 76.6274 84.2349 79.624 82.3396C80.7312 81.639 82.6713 80.9555 83.8087 81.9277ZM69.7843 113.587C67.5637 113.554 68.6432 117.086 69.251 118.274C70.532 120.778 73.2758 121.747 75.685 120.823C77.5908 120.093 79.6521 116.865 76.6673 116.33C75.236 116.073 73.8191 116.178 72.4628 115.418C71.6901 114.986 70.6912 113.601 69.7843 113.587ZM75.3552 94.8049C73.9755 95.7393 76.3303 101.707 76.7269 102.915C77.3727 104.886 77.9475 106.159 76.3045 107.678C75.1622 108.735 72.9089 109.647 73.9848 111.753C74.9804 113.701 78.3965 112.884 79.7855 111.931C81.8045 110.545 81.2096 107.889 80.7642 105.71C80.4732 104.282 77.812 93.1411 75.3552 94.8049ZM292.615 55.62C288.36 57.6475 284.01 59.479 279.508 60.7007C275.573 61.7687 271.704 62.9203 267.649 62.6694C263.898 62.4378 263.45 66.5491 265.593 69.3964C266.757 70.9432 268.108 70.9046 269.805 70.9644C271.791 71.0345 273.594 71.6492 275.51 72.1996C278.427 73.0378 281.38 73.7496 284.207 74.9327C285.666 75.5433 287.105 76.2614 288.406 77.2264C289.224 77.8335 291.049 78.9271 290.084 79.7751C288.689 81.0005 284.546 79.3219 282.886 79.2112C279.019 78.954 275.16 78.5646 271.315 78.0246C269.432 77.7597 267.41 77.498 265.626 76.7349C264.459 76.2358 263.167 74.9965 261.846 75.3113C259.058 75.9754 260.44 80.6376 261.705 82.1543C263.585 84.4067 266.438 85.4014 268.866 86.6811C270.563 87.5759 272.25 88.5234 273.897 89.5248C274.676 89.9978 278.304 91.77 278.189 93.1154C278.068 94.5296 275.205 93.8164 274.496 93.6878C269.77 92.8303 265.505 90.7915 261.138 88.7051C259.227 87.7918 257.288 86.9154 255.417 85.9027C254.109 85.1949 252.824 84.1167 251.38 83.7951C247.975 83.0366 248.124 87.2792 246.783 89.5711C242.799 96.3826 235.099 99.2884 229.109 103.225C226.843 104.714 224.681 106.428 222.601 108.222C221.116 109.503 220.522 111.265 218.864 109.576C217.481 108.168 216.815 106.104 215.929 104.313C214.897 102.228 213.52 100.388 212.462 98.3203C210.9 95.2657 210.432 92.3523 213.863 91.2281C217.465 90.0482 220.315 88.2887 223.377 85.7782C230.89 79.6168 237.124 71.749 244.615 65.5405C251.555 59.7884 258.915 54.3906 267.615 52.846C275.862 51.3814 284.909 51.742 292.615 55.62ZM67.5295 99.8639C67.7056 101.56 68.0801 105.178 70.1922 105.313C72.7574 105.477 71.0346 96.7837 69.5815 95.8052C67.2549 94.2386 67.3803 98.4268 67.5295 99.8639ZM91.3988 99.1715C94.6008 99.4674 95.5134 103.38 92.3129 104.765L91.3988 99.1715ZM79.5259 95.7376C79.9371 97.5133 79.7908 100.363 81.0681 101.726C82.8687 103.646 83.6527 100.828 83.6394 99.2207C83.6265 97.6311 82.9203 93.6552 81.0133 93.4456C79.384 93.2667 80.74 95.3738 79.5259 95.7376ZM44.969 56.2306C46.1396 58.9479 44.8812 61.6297 44.1806 64.3008C45.6176 64.8174 47.554 64.4267 48.4315 66.121C48.9845 67.189 48.8882 68.797 48.7225 69.9535C48.5867 70.9023 47.8894 72.1798 48.4698 73.0603C49.2296 74.2128 51.1156 73.6799 51.9536 74.9619C53.2274 76.9116 52.5127 81.3651 50.7255 82.8329C48.2134 84.8946 49.7125 79.8349 49.8661 78.9136C50.2514 76.6054 48.1078 76.9193 46.6438 75.9871C45.8582 75.4871 45.718 75.3904 45.5378 74.3229C45.3713 73.3395 45.4596 72.5593 45.6696 71.4995C46.3822 67.9035 45.1363 68.4908 42.5755 67.6984C40.3666 67.0145 40.5436 65.0454 41.1047 62.9756C41.5449 61.3532 42.8569 58.6916 41.4356 57.3084C40.8717 56.7594 40.0152 57.1066 39.8934 55.9608C39.8112 55.1874 40.7415 53.9193 41.2301 53.4746C42.9137 51.9412 44.2846 54.6415 44.969 56.2306Z" fill="black"/>
</g>
</svg>
