<svg width="597" height="659" viewBox="0 0 597 659" fill="none" xmlns="http://www.w3.org/2000/svg">
<ellipse cx="316.5" cy="192.351" rx="225.5" ry="180.48" fill="#C4C4C4"/>
<g clip-path="url(#clip0_23_128)">
<path fill-rule="evenodd" clip-rule="evenodd" d="M176.799 459.911C179.566 479.283 182.332 498.655 185.099 518.026L187.333 533.67C187.615 535.644 187.349 539.538 188.423 541.305C188.803 541.928 189.8 542.224 190.534 542.592C193.058 543.857 195.583 545.122 198.108 546.388C219.463 557.091 240.819 567.795 262.173 578.499C282.668 588.771 303.163 599.043 323.658 609.315C325.779 610.379 329.209 613.152 331.499 612.421C333.675 611.727 335.899 610.014 337.875 608.933C341.668 606.858 345.461 604.783 349.254 602.708C372.204 590.152 395.154 577.595 418.105 565.038C427.574 559.858 437.043 554.678 446.512 549.497C449.102 548.079 451.694 546.662 454.285 545.244C455.64 544.503 455.816 544.529 456.349 543.271C458.343 538.567 459.267 533.178 460.677 528.297C462.232 522.918 463.787 517.539 465.342 512.16C466.035 509.759 465.71 509.45 464.579 507.133C462.341 502.547 460.104 497.961 457.866 493.376C452.9 483.198 447.933 473.02 442.966 462.842C440.958 458.726 436.12 455.83 432.637 452.803L378.559 405.8C377.185 404.606 375.812 403.413 374.438 402.219C374.212 409.394 372.693 417.108 374.921 424.04C378.577 435.416 382.233 446.792 385.888 458.167C387.655 463.666 389.422 469.164 391.189 474.663C391.517 475.684 393.516 479.735 392.981 480.634C392.685 481.132 390.161 481.636 389.614 481.83C387.265 482.664 384.916 483.498 382.567 484.333C376.022 486.657 369.477 488.982 362.932 491.306C357.045 493.397 351.159 495.488 345.272 497.578C343.276 498.287 340.932 499.6 338.824 499.491C336.938 499.393 334.793 498.521 332.968 498.083C329.76 497.311 326.551 496.54 323.343 495.768C317.041 494.253 310.738 492.737 304.435 491.222C297.345 489.516 291.357 484.509 285.293 480.802C274.87 474.431 264.447 468.06 254.025 461.689C251.638 460.23 251.63 459.398 250.679 456.735C248.542 450.75 246.405 444.765 244.268 438.781C243.127 435.585 241.724 432.376 240.862 429.105C239.441 423.705 238.598 418.116 237.472 412.657C237.132 411.01 236.793 409.363 236.453 407.716C232.088 409.369 227.723 411.023 223.358 412.677C222.725 412.917 219.642 413.631 219.368 414.219C219.194 414.59 220.112 416.274 220.243 416.636C223.862 426.644 227.481 436.651 231.101 446.658C232.24 449.806 233.378 452.953 234.516 456.101C231.796 452.11 229.075 448.119 226.354 444.127C224.217 450.84 222.079 457.553 219.941 464.265C214.889 458.823 209.836 453.38 204.783 447.937C203.034 453.38 201.285 458.823 199.536 464.265C194.095 457.553 188.654 450.84 183.212 444.127C182.565 447.63 181.918 451.133 181.271 454.636C181.076 455.694 181.115 458.727 180.361 459.564C179.74 460.253 177.952 459.911 176.799 459.911Z" fill="#4EC63A"/>
<path fill-rule="evenodd" clip-rule="evenodd" d="M521.318 501.785C521.012 510.904 521.224 522.741 515.879 530.759C515.016 532.053 512.093 536.083 511.767 532.537C511.447 529.056 512.364 525.609 511.455 522.087C510.969 520.203 509.334 516.087 506.538 517.789C505.114 518.657 504.739 520.799 504.181 522.151C503.357 524.151 502.433 526.119 501.565 528.104C498.534 535.034 495.392 543.303 488.653 547.888C489.535 541.913 491.939 535.533 490.323 529.493C489.773 527.435 488.104 523.676 485.232 524.882C482.432 526.057 480.618 531.301 479.297 533.636C475.291 540.715 471.194 547.661 466.684 554.476C464.416 557.904 461.966 561.037 458.998 563.969C457.142 565.803 454.828 568.902 451.904 569.176C451.904 563.949 453.746 558.899 455.428 553.977C457.237 548.685 458.886 543.347 460.662 538.045C462.202 533.445 463.467 528.881 464.492 524.164C464.917 522.214 465.253 520.194 467.034 518.934C468.635 517.802 471.164 517.263 472.949 516.431C477.637 514.245 482.458 511.886 486.812 509.168C488.6 508.052 490.139 506.611 492.012 505.61C494.145 504.47 496.136 503.51 498.11 502.121C506.625 496.125 514.302 488.749 519.474 479.969C520.314 483.496 521.426 486.943 521.549 490.579C521.674 494.307 521.443 498.059 521.318 501.785ZM451.235 543.699C449.873 541.552 447.799 542.431 445.97 543.466C443.133 545.073 440.289 546.667 437.437 548.253C431.635 551.481 425.939 554.877 420.27 558.304C408.729 565.278 396.786 570.985 384.62 576.888C372.86 582.593 361.566 589.382 350.548 596.244C347.9 597.893 345.271 599.581 342.728 601.369C340.471 602.957 338.666 605.186 336.291 606.6C333.816 608.071 332.116 606.877 329.749 605.792C326.79 604.435 323.706 603.297 320.681 602.073C308.473 597.132 296.23 592.003 284.355 586.395C272.552 580.822 261.368 574.4 250.058 568.021C244.672 564.984 239.377 561.753 234.064 558.604C228.41 555.253 222.556 552.743 216.625 549.894C214.001 548.633 211.677 546.921 208.982 545.775C206.148 544.57 203.155 543.706 200.618 541.968C199.48 541.189 198.521 540.257 197.221 539.706C196.153 539.254 194.942 539.178 193.888 538.697C191.743 537.72 191.129 535.736 190.714 533.672C188.043 520.426 186.624 506.814 185.076 493.42C184.206 485.889 183.235 478.386 182.033 470.894C181.491 467.517 182.581 464.9 183.154 461.614C183.822 457.776 184.086 453.858 184.534 449.994C186.647 453.649 188.474 457.484 191.162 460.818C193.144 463.276 196.529 466.761 200.178 466.679C205.849 466.551 205.59 457.469 205.818 453.865C208.402 456.017 209.185 459.524 211.329 462.025C213.287 464.307 215.951 467.14 218.958 468.162C225.288 470.314 224.679 459.344 224.331 456.233C224.156 454.673 223.212 452.204 225.452 452.916C227.514 453.571 229.52 456.287 231.254 457.533C234.25 459.687 237.536 461.478 240.61 463.534C244.423 466.085 248.538 467.929 252.426 470.306C254.858 471.792 257.511 472.126 260.162 473.219C264.046 474.82 267.477 477.207 271.173 479.128C278.494 482.928 286.616 486.337 294.623 488.628C297.214 489.369 300.667 491.459 302.632 489.312C303.842 487.99 304.637 485.971 305.665 484.49C306.964 482.614 308.344 480.788 309.777 478.999C314.872 472.642 320.525 466.638 326.803 461.276C334.108 455.038 342.095 449.425 350.639 444.749C354.309 442.74 369.636 433.737 373.006 440.074C370.237 439.912 367.837 440.858 365.47 442.042C364.892 442.331 361.912 444.317 362.609 442.566C361.744 442.718 360.985 443.771 360.329 444.24C359.197 445.05 357.478 445.985 356.167 446.655C354.87 447.318 353.268 447.48 352.086 448.283C351.655 448.577 351.393 449.052 350.981 449.37L349.801 449.378C349.625 449.988 349.448 450.598 349.271 451.208C348.604 449.212 347.653 451.808 346.539 452.651C345.869 453.158 344.808 453.68 344.02 454.007C343.43 454.251 343.339 453.683 342.767 454.115C342.258 454.499 341.934 455.344 341.387 455.825C340.716 456.414 339.858 456.872 339.11 457.375C337.677 458.338 336.161 459.095 334.709 460.008C332.756 461.237 331.732 463.35 329.836 464.635C328.937 465.244 327.542 465.315 327.056 465.705C325.837 466.683 326.238 468.166 323.965 468.231C324.172 468.541 324.296 468.876 324.338 469.238C323.797 469.151 323.315 468.941 322.894 468.609C322.988 470.726 320.758 471.482 319.421 472.785C318.651 473.536 317.69 474.593 317.147 475.497C317.057 475.648 316.884 476.855 316.847 476.871C316.64 476.964 315.384 475.933 315.503 476.019C315.153 477.975 313.125 479.825 312.237 481.636C311.769 482.59 311.294 484.124 310.372 484.795C310.122 484.977 309.35 484.786 308.713 485.421C308.246 485.885 307.706 486.745 307.516 487.361C307.39 487.773 307.542 488.839 307.36 489.086C307.027 489.538 306.508 489.084 305.985 489.418C305.02 490.035 304.995 491 303.583 491.127C304.556 493.335 310.435 494.016 312.572 494.644C318.615 496.42 324.955 498.193 330.603 500.912C332.064 501.615 333.447 502.195 333.706 503.815C334.066 506.07 332.836 509.067 332.601 511.345C331.965 517.494 331.835 523.825 331.968 530.001C332.094 535.851 332.297 541.756 332.589 547.599C332.859 553.016 334.029 558.326 334.661 563.705C334.834 565.181 334.718 571.839 337.437 571.503C339.708 571.224 338.274 566.676 338.232 565.373C338.136 562.488 338.787 559.542 338.76 556.631C338.747 555.232 339.402 554.026 339.465 552.687C339.528 551.364 338.823 550.319 339.034 548.947C339.237 547.631 343.405 540.061 339.402 540.948C339.637 539.866 339.842 538.775 340.151 537.709C340.579 538.068 340.924 538.487 341.184 538.966C341.541 536.641 341.422 534.321 341.643 531.994C341.742 530.94 342.199 529.786 342.043 528.723C342.073 528.283 342.013 527.851 341.864 527.427C341.618 527.184 341.313 527.056 340.951 527.044C340.76 526.462 340.711 526.302 341.049 525.731C341.194 525.344 341.482 525.102 341.913 525.006C342.734 524.916 342.828 524.475 342.194 523.685C342.525 522.127 342.567 521.143 342.329 519.587C342.128 518.28 342.866 515.75 342.114 514.586C341.237 513.226 340.801 514.546 340.638 512.66C340.603 512.261 340.575 511.43 340.747 511.032C340.935 510.598 341.501 510.776 341.573 510.622C342.065 509.574 342.097 507.511 340.358 507.69C340.427 506.942 340.495 506.194 340.562 505.445C341.819 506.796 341.38 505.653 342.092 504.902C343.052 503.891 343.99 503.717 345.362 503.317C349.018 502.252 352.541 500.65 356.114 499.351C363.679 496.598 371.384 494.141 378.728 490.888C394.173 484.046 409.312 476.621 424.852 469.959C423.742 468.036 424.433 467.942 425.244 466.136C426.327 466.839 426.1 466.349 426.87 466.306C426.8 465.703 427.001 465.521 427.472 465.76C427.847 465.868 428.231 465.906 428.625 465.874C429.587 466.028 430.373 466.522 431.247 466.71C431.534 466.908 431.85 467.056 432.194 467.155C432.503 467.089 432.766 466.947 432.984 466.727C434.4 466.972 434.877 467.967 434.939 469.409C434.95 469.66 434.128 469.916 434.363 470.253C434.774 470.842 435.881 470.702 436.514 470.777C436.375 471.389 436.236 472 436.098 472.611C438.876 471.414 438.151 475.16 438.994 476.391C439.229 476.734 439.752 476.46 440.024 476.858C440.379 477.377 440.272 478.113 440.574 478.63C441.258 479.799 441.943 479.657 442.624 480.997C446.186 487.99 450.924 494.505 454.343 501.649C455.971 505.049 457.439 508.507 459.138 511.878C460.702 514.979 461.595 517.616 460.481 521.003C457.896 528.861 455.131 536.862 451.743 544.452C451.574 544.201 451.405 543.95 451.235 543.699ZM270.915 602.351C270.673 602.736 270.43 603.121 270.188 603.507C269.649 600.614 271.084 601.956 270.915 602.351ZM259.513 596.934C258.735 596.717 259.071 595.532 259.096 595.025C259.588 595.597 260.07 596.18 260.479 596.808C260.157 596.85 259.834 596.892 259.513 596.934ZM228.262 585.813C229.078 585.386 229.665 585.079 230.59 584.595C229.65 586.306 229.65 586.306 228.262 585.813ZM179.097 435.085C177.85 437.942 181.653 455.585 178.113 456.161C177.605 454.613 177.541 450.349 175.439 449.84C172.832 449.208 173.089 453.598 172.733 454.955C167.379 451.478 165.001 444.762 162.443 439.441C159.183 432.657 156.618 425.602 154.168 418.534C152.073 412.491 150.341 406.341 148.224 400.308C146.894 396.519 145.461 392.72 144.566 388.815C144.372 387.966 143.608 385.815 144.257 385.008C145.201 383.835 148.599 385.178 149.694 385.486C156.797 387.482 164.165 388.341 171.462 389.5C179.57 390.787 187.66 392.118 195.817 393.116C197.855 393.365 199.894 393.602 201.935 393.831C203.258 393.98 205.261 393.831 206.518 394.385C209.063 395.506 209.604 399.795 210.549 402.02C214.075 410.321 218.224 418.36 221.936 426.586C225.28 433.996 227.815 441.88 232.622 448.627C229.037 447.144 224.494 439.3 220.488 443.821C218.766 445.765 219.2 448.326 219.338 450.653C219.537 454.017 219.599 457.405 219.599 460.774C215.679 459.823 213.045 455.669 210.987 452.726C208.176 448.707 206.405 444.919 205.161 440.311C204.621 438.316 203.192 438.267 201.921 437.072C201.105 436.305 200.695 435.271 199.524 436.387C198.053 437.79 199.031 441.676 199.286 443.333C199.889 447.275 201.868 453.342 199.944 457.046C197.348 462.045 190.389 449.467 189.574 447.65C189.16 446.725 181.757 428.99 179.097 435.085ZM174.236 349.411C174.675 349.474 175.112 349.536 175.551 349.599C175.197 349.89 174.462 350.911 173.862 350.641C173.987 350.231 174.111 349.821 174.236 349.411ZM197.457 344.759C197.32 344.9 197.182 345.041 197.045 345.182C196.416 344.448 196.639 343.378 196.639 342.53C197.47 342.998 197.672 343.936 197.457 344.759ZM199.334 352.899V355.297C197.593 354.593 197.559 354.23 199.334 352.899ZM201.448 355.948C200.228 355.636 200.083 355.384 200.254 353.634C200.759 354.614 201.092 355.26 201.448 355.948ZM208.469 373.708C207.957 374.936 204.969 372.01 205.079 371.134C205.183 370.299 205.642 370.049 206.275 370.586C206.485 370.764 206.174 371.407 206.307 371.63C206.79 372.438 207.761 373.099 208.469 373.708ZM208.502 381.106C207.753 382.851 206.419 380.103 208.375 380.027C208.503 380.378 208.546 380.738 208.502 381.106ZM207.05 378.354C206.76 377.993 206.478 377.628 206.205 377.255C207.212 377.445 208.012 378.816 209.075 377.901C208.949 379.296 207.888 379.335 207.05 378.354ZM141.901 355.689C140.281 354.038 150.846 352.879 152.12 352.596C161.369 350.537 170.101 347.557 178.749 343.901C182.875 342.158 186.979 340.393 191.007 338.459C192.747 337.625 195.132 336.917 196.585 335.664C197.622 334.77 197.58 334.094 198.928 333.561C200.073 333.11 200.13 333.536 200.654 332.719C200.969 332.23 201.325 330.435 201.141 329.903C200.639 328.454 199.897 329.629 198.855 328.63C198.104 327.91 198.286 325.863 198.491 325.015C198.757 325.419 198.91 325.857 198.95 326.33C200.081 325.809 199.625 324.022 200.861 323.73C202.165 323.422 202.03 324.369 202.37 325.338C203.354 323.988 202.565 322.837 202.032 321.519C204.741 321.045 207.652 320.587 210.338 321.428C212.28 322.036 213.942 323.531 215.992 323.82C218 324.103 218.386 323.214 219.866 322.312C221.068 321.58 222.1 322.442 222.718 321.889C222.337 323.756 219.059 323.501 219.462 325.833C219.644 326.883 221.022 327.826 221.65 328.643C222.437 329.669 223.065 330.802 223.602 331.958C225.688 336.453 226.58 341.668 227.456 346.475C229.617 358.339 229.89 370.437 231.922 382.339C232.891 388.008 233.861 393.68 234.365 399.405C234.491 400.837 235.427 404.083 234.661 405.46C234.013 406.623 232.572 406.626 231.307 406.907C228.831 407.456 226.507 408.203 224.132 409.029C222.004 409.77 221.385 410.225 220.019 408.355C218.697 406.546 218.043 404.39 217.098 402.406C215.893 399.879 214.438 397.441 213.041 395.003C215.785 395.003 217.365 393.62 217.292 391.017C217.213 388.133 214.672 387.449 213.625 385.079C212.607 386.314 212.521 386.349 211.795 385.177C210.965 383.836 210.405 381.383 209.897 379.862C210.26 380.224 210.623 380.586 210.987 380.948C211.902 379.771 210.468 377.916 209.988 376.808C209.247 375.097 209.117 373.247 208.414 371.541C208.031 370.609 207.144 369.876 206.926 368.905C206.781 368.254 207.363 367.635 207.225 366.975C206.985 365.826 205.592 364.592 205.159 363.423C204.492 361.625 203.769 360.042 202.942 358.29C201.823 355.918 202.083 353.43 201.879 350.906C201.667 348.289 200.769 345.786 200.452 343.18C200.232 341.38 200.919 339.114 199.46 337.672C199.289 340.069 200.025 340.032 197.613 340.463C194.867 340.953 192.875 342.863 190.279 343.433C189.744 343.55 189.354 341.368 189.563 344.345C188.317 343.487 185.66 344.552 186.651 345.062C185.9 345.812 184.419 345.293 184.172 346.418C181.618 344.1 177.523 351.99 174.481 347.874C173.979 350.663 171.815 352.313 168.911 352.682C167.45 352.867 166.55 353.321 165.254 353.73C164.991 353.812 164.895 354.165 164.583 354.261C164.107 354.405 163.409 353.968 163.066 354.053C162.368 354.226 161.592 355.083 160.618 355.254C159.501 355.449 158.283 355.359 157.164 355.239C155.766 355.087 155.151 354.933 153.782 355.363C152.551 355.75 151.232 356.833 150.09 355.653C148.295 358.553 144.015 357.844 141.901 355.689ZM224.889 320.701C223.531 320.55 224.474 319.459 225.103 319.131C226.812 318.242 226.356 320.866 224.889 320.701ZM149.669 331.106C157.643 320.367 171.28 312.989 183.28 306.781C189.834 303.39 196.524 300.103 203.406 297.328C206.827 295.949 210.289 294.623 213.783 293.412C215.648 292.764 217.537 292.176 219.426 291.59C219.949 291.429 220.899 290.932 221.446 290.981C221.351 290.972 222.805 291.341 222.519 291.457C223.455 291.077 223.901 290.084 225.001 289.688C226.239 289.241 227.815 289.057 229.14 289.017C230.312 288.981 231.327 289.433 232.444 289.468C233.178 289.491 233.802 289.166 234.521 289.118C234.889 289.094 234.856 289.608 235.078 289.638C235.174 289.651 236.153 289.307 236.163 289.313C236.519 289.527 236.835 290.362 237.158 290.688C238.082 291.623 239.44 292.275 240.673 292.767C242.173 293.365 245.834 293.967 244.138 296.183C245.343 296.021 245.903 297.038 244.395 297.295C243.577 297.435 243.228 296.736 242.621 296.259C241.219 295.16 237.815 293.594 235.796 293.665C234.66 293.705 233.782 294.51 232.734 294.802C231.703 295.09 231.192 294.644 230.287 294.715C229.229 294.797 228.549 295.632 227.54 295.781C226.597 295.92 226.071 295.319 225.227 295.361C224.224 295.411 223.253 296.224 222.296 296.497C220.773 296.931 219.655 297.228 218.168 297.948C215.287 299.344 212.069 299.874 209.1 301.076C206.726 302.036 204.034 302.542 201.837 303.604C199.395 304.785 196.941 305.961 194.549 307.244C192.821 308.171 189.307 308.49 187.402 308.254C187.375 311.529 185.648 309.233 183.908 310.668C184.319 311.007 184.787 311.256 185.309 311.416C183.423 312.119 181.679 312.994 179.852 313.802C177.964 314.638 175.949 314.822 174.708 316.403C173.566 317.86 173.953 317.109 172.247 317.682C171.465 317.946 170.785 318.749 170.221 319.288C169.252 320.216 169.037 321.62 168.484 319.714C168.323 319.946 167.687 321.426 167.564 321.464C166.87 320.777 166.771 321.591 166.383 321.882C166.587 322.515 166.296 322.93 165.508 323.127C165.11 323.403 164.707 323.674 164.299 323.939C162.821 324.897 160.939 325.718 159.898 327.144C159.13 326.722 158.845 325.992 159.313 325.247C157.845 326.509 156.095 327.806 155.698 329.75C155.515 329.585 155.302 329.467 155.061 329.394C154.465 329.769 155.241 330.888 155.619 331.14C157.266 330.543 155.207 330.759 156.314 330.856C156.63 330.883 156.954 331.103 157.302 331.107C158.323 331.12 159.282 331.074 160.294 330.929C162.526 330.608 164.719 330.009 166.88 329.41C169.233 328.757 171.586 328.105 173.887 327.303C175.782 326.644 177.646 325.908 179.508 325.176C180.252 324.883 180.995 324.586 181.741 324.296C183.156 323.744 183.902 322.837 183.704 324.39C184.831 324.216 185.808 322.729 186.673 322.122C187.89 321.269 189.259 320.633 190.701 320.197C191.286 320.021 191.715 319.797 192.319 319.795C192.615 319.795 192.792 320.574 192.979 320.532C194.273 320.239 193.683 319.569 194.265 318.605C195.537 316.497 198.966 315.331 201.071 314.134C202.407 313.373 203.356 312.351 204.589 311.509C205.166 311.115 205.586 310.941 206.19 310.774C206.653 310.646 207.221 311.639 207.521 310.642C206.444 310.231 205.556 309.724 204.52 309.424C203.788 309.211 204.667 308.484 203.505 308.917C203.039 309.091 202.879 309.934 202.707 310.286C201.41 309.205 197.763 310.325 196.224 310.778C196.118 310.809 195.642 310.575 195.419 310.589C194.53 310.645 193.911 311.761 193.327 312.242C191.772 313.521 190.085 314.055 188.171 314.785C188.68 312.186 192.425 311.122 194.61 310.126C197.805 308.671 200.78 306.813 204.278 306.031C206.608 305.509 209.695 305.089 210.701 307.618C211.303 309.133 211.379 312.899 209.341 313.599C209.126 312.891 209.815 312.286 210.023 311.672C207.995 312.395 207.661 314.67 206.12 315.857C205.254 316.524 204.945 316.737 204.526 317.382C204.111 318.022 203.911 318.619 202.937 319.3C201.345 316.143 201.614 320.467 200.807 321.01C201.131 320.792 199.491 321.429 199.687 321.362C199.611 321.388 198.896 320.307 198.433 320.33C197.589 320.371 197.751 321.238 197.345 321.675C195.967 323.152 194.187 324.12 191.97 323.888C191.918 324.939 192.266 326.195 190.728 326.29L190.526 323.96C189.69 324.751 188.589 325.501 187.908 326.416C187.133 327.457 187.216 328.099 185.93 328.792C184.587 329.518 181.729 330.947 180.13 331.071C180.526 330.547 180.456 330.074 179.922 329.653C179.118 330.427 177.931 330.503 177.075 331.202C180.046 332.361 174.792 332.301 174.126 332.432C173.68 332.52 173.29 332.9 172.839 332.985C172.239 333.099 172.161 332.51 171.645 332.697C170.889 332.97 171.196 333.741 170.405 334.129C169.837 334.407 168.874 334.403 168.233 334.668C166.707 335.299 163.454 336.697 162.422 335.002C161.899 337.911 156.558 336.14 154.581 335.944C151.874 335.676 147.158 334.489 149.669 331.106ZM161.041 301.335C161.424 301.03 161.808 301.052 162.192 301.403C161.658 298.769 165.788 297.491 167.59 296.371C169.981 294.887 172.794 292.006 175.922 292.234C175.389 292.603 174.856 292.972 174.324 293.341C175.084 293.433 175.845 293.525 176.604 293.617C176.176 294.205 175.747 294.792 175.317 295.379C174.615 291.767 170.953 296.327 169.893 296.992C168.825 297.661 167.761 298.159 166.812 298.975C165.872 299.783 165.024 301.239 163.47 300.512C163.329 302.574 161.552 302.015 160.324 303.157C160.272 302.441 160.712 301.934 161.041 301.335ZM177.269 291.038C181.05 289.716 184.341 287.272 187.904 285.526C191.307 283.857 194.779 282.36 198.239 280.804C199.993 280.014 203.208 277.972 205.214 279.012C207.921 280.418 204.195 280.871 203.227 281.358C202.869 279.194 201.615 281.154 202.364 282.358C200.298 281.525 195.793 284.783 193.823 285.682C193.377 285.885 193.577 286.003 193.07 286.242C192.945 286.301 191.652 286.576 191.281 286.692C189.426 287.272 188.204 286.811 187.404 288.902C187.237 288.41 187.07 287.917 186.903 287.425C185.741 289.859 182.211 290.925 179.954 292.364C179.372 292.736 177.71 294.175 176.972 293.878C175.945 293.463 176.357 291.356 177.269 291.038ZM245.473 298.378C247.07 298.477 245.53 299.172 245.969 299.631C245.919 299.579 246.93 300.384 246.798 300.163C246.976 300.46 247.405 300.45 247.624 301.054C248.379 303.131 245.082 305.278 243.97 306.457C241.808 308.75 240.559 311.653 238.306 313.873C237.289 314.875 236.277 315.568 234.867 315.942C233.88 316.204 232.835 315.923 231.928 316.809C231.198 317.523 231.363 317.928 230.556 318.308C229.133 318.977 228.507 318.39 227.122 319.835C225.931 316.813 229.354 316.817 231.139 315.128C233.604 312.796 236.305 310.443 238.617 307.948C240.67 305.731 241.493 303.788 242.468 301.095C242.775 300.245 243.11 298.425 243.957 297.892C245.276 297.063 244.484 298.317 245.473 298.378ZM253.323 376.905C257.509 372.534 262.703 368.609 268.332 365.975C270.344 365.034 273.209 363.798 275.294 365.248C277.339 366.668 276.899 369.502 276.075 371.43C275.285 371.141 276.03 368.431 275.621 367.762C274.726 366.301 272.796 367.076 271.484 367.566C269.946 368.14 268.573 368.774 267.355 369.815C266.861 370.237 265.915 370.615 265.598 370.905C265.122 370.72 264.842 370.855 264.758 371.308C264.856 371.585 264.844 371.858 264.722 372.127C264.653 372.213 264.034 371.862 263.946 371.932C263.545 372.253 263.17 372.63 262.775 372.928C261.983 373.526 261.309 373.809 260.58 374.643C259.171 376.255 257.308 377.199 255.893 378.734C255.573 379.081 255.19 379.971 255.119 380.049C254.403 380.829 253.343 381.445 252.536 382.27C251.141 383.696 249.651 384.653 248.041 385.875C247.348 386.401 246.54 386.967 246.078 387.699C245.868 388.033 245.75 389.861 245.743 389.869C244.164 391.484 244.471 388.237 244.59 387.83C245.872 383.449 250.207 380.16 253.323 376.905ZM244.705 406.528C244.902 407.216 245.063 407.785 245.263 408.484C244.011 407.525 244.011 407.525 244.705 406.528ZM243.353 408.782C242.893 409.214 242.431 409.644 241.965 410.072C240.941 409.061 243.541 408.609 243.353 408.782ZM242.703 391.386C242.214 393.235 240.421 395.477 239.188 396.937C239.324 396.776 238.137 397.1 238.001 397.173C237.562 397.41 238.614 398.948 237.092 398.261C236.553 398.546 237.615 399.708 236.882 400.227C234.762 395.718 240.55 391.811 242.791 388.464C243.887 389.404 242.979 390.349 242.703 391.386ZM228.934 415.766C230.48 416.137 231.284 415.904 232.328 414.486C232.955 413.635 233.184 412.127 234.619 413.401L234.872 411.763C236.92 412.548 236.748 415.382 237.643 416.953C238.078 415.176 239.11 410.212 242.268 411.008C245.813 411.902 239.913 417.594 239.364 418.988C238.159 417.242 238.633 418.867 237.714 419.113C236.925 419.324 235.693 418.782 234.734 418.831C231.818 418.979 229.256 420.204 226.593 421.241C225.918 419.543 225.244 417.846 224.569 416.148C226.138 416.261 229.38 412.364 229.841 415.196C228.678 415.007 228.35 415.055 227.784 416.043C228.146 415.872 228.529 415.779 228.934 415.766ZM235.48 437.924C235.476 437.91 238.497 438.084 238.766 437.992C240.834 437.287 240.069 435.098 240.492 433.551C241.344 434.282 240.893 435.618 241.155 436.564C241.464 437.677 242.357 438.625 242.44 439.814C242.628 442.503 240.265 441.906 238.474 442.776C236.944 443.519 236.774 444.454 235.482 442.451C235.132 441.909 234.38 440.496 234.457 439.803C234.533 439.116 235.698 438.545 235.48 437.924ZM237.915 449.556L237.08 448.682C239.569 449.394 238.101 448.324 238.674 446.862C240.584 448.049 242.143 449.27 243.654 446.892L246.266 456.727C244.512 457.112 242.249 454.582 241.045 453.713C240.35 453.211 236.494 451.276 238.809 450.712C238.511 450.326 238.213 449.941 237.915 449.556ZM254.965 418.673C253.515 419.96 252.054 420.681 250.475 421.692C249.091 422.581 249.568 423.6 248.367 424.591C247.57 425.249 245.702 425.92 244.717 426.422C242.963 427.317 241.392 427.487 239.587 426.486C240.078 430.177 237.371 430.466 234 431.196C232.393 431.545 231.441 432.078 230.283 430.704C229.489 429.763 229.179 428.06 230.166 427.2C231.733 425.833 235.91 426.305 237.922 425.445C239.448 424.793 241.003 421.118 242.886 422.455C241.914 421.01 243.046 420.621 243.89 419.591C244.816 418.462 245.384 417.141 246.341 416.021C248.16 413.892 250.953 411.75 253.536 410.466C255.809 409.337 257.003 410.136 257.343 412.508C257.515 413.701 257.508 415.477 256.793 416.535C256.565 416.873 255.812 416.877 255.584 417.193C255.187 417.747 255.552 418.151 254.965 418.673ZM281.639 390.048C283.453 391.359 283.276 394.113 283.562 395.988C283.965 398.632 283.672 401.19 283.629 403.882C283.584 406.703 282.101 408.541 281.403 411.185C280.628 414.126 279.627 415.684 277.887 418.152C279.774 418.429 276.966 423.689 276.503 424.37C276.001 425.109 271.948 428.515 273.686 428.515C272.727 429.695 271.684 430.906 270.729 432.053C270.353 432.505 269.693 432.682 269.397 433.001C268.794 433.649 268.757 434.228 268.325 434.984C267.669 436.132 267.453 435.825 266.591 436.658C265.996 437.234 265.605 437.993 265.02 438.544C263.136 440.32 262.896 438.865 261.842 437.497C261.681 437.864 261.394 438.093 260.982 438.187C260.652 436.639 262.923 435.075 263.878 434.134C265.442 432.593 266.872 430.895 268.255 429.209C271.217 425.598 273.878 421.76 275.978 417.65C278.212 413.276 279.997 408.542 280.924 403.77C281.63 400.132 282.302 393.893 277.096 392.967C273.309 392.295 269.135 394.442 266.013 396.181C264.111 397.241 262.198 398.294 260.386 399.485C258.419 400.777 256.719 402.606 254.584 403.643C255.752 403.076 251.899 404.782 252.489 404.302C252.212 404.527 252.451 405.212 252.268 405.521C252.03 405.923 251.204 406.321 250.833 406.581C249.853 407.268 248.289 407.97 247.843 409.105C241.631 404.967 253.985 397.622 257.152 395.751C263.434 392.041 274.365 384.791 281.639 390.048ZM298.397 349.808C298.337 346.829 300.937 342.762 302.692 340.332C303.551 339.143 304.923 339.19 305.426 337.788C305.716 336.98 305.335 336.133 305.422 335.322C305.538 334.225 306.048 333.346 306.635 332.403C311.948 323.882 318.403 316.339 325.279 308.904C328.669 305.239 331.883 301.433 335.539 297.99C337.067 296.552 341.172 291.383 343.52 291.9C344.764 292.173 345.487 293.945 346.048 294.849C346.977 296.344 347.997 297.745 349.126 299.119C352.103 302.749 355.538 305.935 359.594 308.508C362.126 310.116 364.685 311.678 367.162 313.363C369.2 314.749 372.283 316.334 373.738 318.28C375.195 320.227 373.056 321.876 371.887 323.492C370.071 326.006 368.4 328.611 366.576 331.123C365.851 330.636 366.038 329.648 365.541 329.024C365.101 328.472 364.477 328.247 363.869 327.906C362.702 327.253 361.557 326.455 360.504 327.549C358.66 329.462 361.195 333.986 363.928 333.49C364.25 335.378 358.792 338.489 357.425 339.528C353.227 342.717 348.897 345.489 343.352 345.777C341.108 345.893 338.773 345.735 336.641 345.034C335.62 344.698 334.49 344.237 333.707 343.505C332.77 342.628 332.531 341.324 331.621 340.457C330.833 339.704 329.749 339.588 328.961 338.833C328.172 338.077 327.782 336.883 327.462 335.903C326.835 333.99 326.717 331.973 326.115 330.055C325.753 328.902 325.456 327.36 324.275 328.468C322.561 330.078 323.422 335.14 323.861 337.069C324.489 339.821 325.961 342.039 327.503 344.407C329.175 346.975 329.792 349.358 330.092 352.329C330.653 357.892 332.363 363.231 335.024 368.236C336.144 370.343 337.485 372.325 338.694 374.384C339.259 375.345 340.525 378.622 342.061 378.605C344.516 378.576 341.019 371.894 340.534 370.773C337.846 364.56 335.277 358.03 334.701 351.302C338.556 352.229 342.757 353.109 346.748 352.522C344.172 357.9 346.863 363.255 346.534 368.791C346.369 371.568 346.25 374.129 346.311 376.897C346.366 379.325 345.191 381.751 344.176 383.946C342.16 388.305 339.623 393.683 335.879 397.022C332.748 399.813 328.561 400.032 324.471 399.389C315.168 397.926 309.055 391.249 305.15 383.666C302.642 378.795 300.724 373.595 299.534 368.305C298.156 362.182 298.519 356.019 298.397 349.808ZM310.479 308.547C301.797 302.682 314.413 296.022 320.835 296.929C322.342 297.142 325.113 297.723 324.972 299.558C324.857 301.058 322.177 302.73 321.148 303.656C318.213 306.298 315.227 311.753 310.479 308.547ZM373.639 438.854C373.341 438.605 370.911 439.217 371.873 437.875C372.673 436.759 374.891 438.157 375.697 438.444C375.033 438.872 374.455 439.536 373.639 438.854ZM337.487 509.783C336.741 509.869 335.961 507.99 338.651 509.394C338.263 509.524 337.875 509.654 337.487 509.783ZM337.41 540.404C337.503 541.246 337.779 541.802 337.138 542.414C336.596 541.791 336.526 540.912 337.41 540.404ZM338.502 553.056C338.423 553.515 338.343 553.973 338.265 554.431C337.644 554.137 337.024 553.844 336.402 553.55C337.102 553.386 337.802 553.221 338.502 553.056ZM339.262 542.388C340.188 542.711 339.757 541.677 340.429 541.532C340.67 542.608 340.374 543.53 339.712 544.417C339.649 544.207 339.31 542.404 339.262 542.388ZM362.923 466.04C361.624 465.886 361.428 467.167 360.459 467.664C359.834 467.985 357.931 467.744 357.576 468.358C358.045 468.484 358.514 468.611 358.983 468.738C357.91 469.277 356.836 469.818 355.763 470.358C358.345 470.358 361.035 469.207 363.599 469.545C364.683 469.688 365.477 470.03 366.157 470.853C366.57 471.352 366.932 472.156 366.999 472.768C367.071 473.43 366.518 473.887 366.616 474.203C367.771 474.232 367.635 476.001 367.376 476.723C366.813 478.286 364.578 480.735 362.576 479.743C363.413 480.853 363.2 481.487 361.961 482.13C362.074 481.764 362.156 481.122 361.523 481.186C361.361 481.801 361.423 482.776 360.885 483.24C360.283 483.758 359.745 483.152 359.169 483.489C358.486 483.89 358.692 484.519 358.155 484.953C357.445 485.527 357.343 485.119 356.494 485.231C355.209 485.4 356.029 484.655 354.999 485.627C354.643 485.962 354.703 486.835 354.126 487.325C353.017 488.268 350.058 489.249 348.996 488.041C346.442 491.82 338.787 492.727 335.223 489.744C329.54 484.986 340.137 475.311 343.635 472.244C347.147 469.167 351.047 466.509 354.994 463.943C357.236 462.485 359.537 461.162 361.887 459.864C363.336 459.062 365.156 457.598 366.937 457.739C368.535 457.865 369.899 459.022 371.581 459.251C372.797 459.417 375.16 459.69 373.626 461.23C372.908 461.95 370.09 463.114 369.13 463.289C368.567 463.392 367.973 463.195 367.414 463.301C366.468 463.483 365.819 464.228 364.79 464.133C365.116 465.558 364.521 466.23 362.923 466.04ZM379.742 413.121C379.743 414.236 377.562 413.958 377.107 413.579C376.357 412.956 376.331 411.092 376.053 410.245C377.32 410.542 379.741 411.632 379.742 413.121ZM362.177 376.329C366.758 372.815 371.573 369.593 376.664 366.755C378.487 365.739 381.061 363.689 383.325 363.945C384.275 364.053 386.239 365.071 385.523 366.194C385.39 366.404 384.333 366.488 384.006 366.641C383.636 366.813 383.346 367.289 383.002 367.524C380.624 369.153 377.766 370.154 375.38 371.822C373.418 373.192 371.589 374.725 369.478 375.9C367.453 377.027 365.337 377.741 363.414 378.989C363.452 378.964 360.913 379.817 361.411 379.972C359.182 379.276 361.536 376.822 362.177 376.329ZM392.714 375.02C395.435 374.008 398.097 372.779 400.946 372.099C402.367 371.759 403.826 371.504 405.298 371.657C405.548 371.248 405.881 371.158 406.297 371.386C406.622 371.852 407.05 372.21 407.581 372.459C408.393 373.042 411.381 373.803 410.784 375.089C410.389 375.94 407.393 376.011 406.571 376.202C404.093 376.778 401.782 378.075 399.229 378.393C398.989 378.423 398.207 378.152 398.198 378.153C397.202 378.356 396.373 379.321 395.517 379.784C393.674 380.78 391.028 380.947 389.705 382.665C393.989 385.376 397.705 382.687 401.472 380.64C403.728 379.415 406.15 378.53 408.615 377.744C409.904 377.334 411.204 376.907 412.51 376.547C413.05 376.363 413.606 376.231 414.176 376.149C414.706 376.051 415.086 376.231 415.315 376.69C416.894 376.641 417.029 375.717 417.979 377.442C419.319 379.873 417.269 379.75 415.343 380.049C412.672 380.462 409.955 381.394 407.323 382.012C406.716 382.154 401.392 383.307 401.386 383.347C401.144 384.916 416.423 383.463 417.735 383.228C420.049 382.812 422.532 381.632 424.928 381.917C426.768 382.135 430.959 384.655 428.024 386.329C427.446 383.747 425.463 385.879 424.427 386.751C423.048 387.911 421.072 387.799 419.18 388.254C416.592 388.874 409.969 391.202 408.131 388.234C408.713 390.836 398.154 389.514 396.703 389.428C395.288 389.343 393.461 389.624 392.093 389.247C391.201 389.002 390.705 388.46 389.866 388.338C389.66 388.545 389.413 388.686 389.126 388.761C388.701 388.56 388.317 388.304 387.974 387.994C385.146 386.781 380.771 386.111 382.342 382.246C383.824 378.601 389.12 376.358 392.714 375.02ZM419.217 377.273C419.288 377.046 419.358 376.819 419.428 376.591C419.437 377.288 421.215 377.585 421.01 378.487C420.555 380.484 418.502 377.483 418.326 377.156C418.624 377.195 418.92 377.234 419.217 377.273ZM430.074 380.591C430.28 381.409 432.644 383.15 432.058 383.552C431.126 382.369 428.549 382.906 430.074 380.591ZM390.186 455.232C391.052 453.629 393.669 456.359 393.393 453.622C394.816 453.742 393.927 454.753 395.633 454.309C396.272 454.142 396.704 453.481 397.483 453.329C397.69 453.288 398.587 453.354 398.897 453.346C399.923 453.316 403.942 453.21 401.175 451.954C402.724 450.998 402.914 451.483 404.312 452.359C403.953 450.549 406.01 451.576 406.967 451.802C406.284 450.77 407.978 449.671 408.528 448.973C408.331 450.048 408.435 451.252 410.101 450.564C410.516 450.393 410.423 449.634 410.752 449.51C411.355 449.283 411.692 449.696 411.909 449.672C412.121 449.65 412.57 449.762 413.017 449.604C413.598 449.4 413.318 448.672 414.055 448.564C414.534 448.493 414.885 449.152 415.471 449.157C415.772 449.16 416.274 448.875 416.502 448.89C416.542 448.893 416.829 448.248 417.18 448.233C417.694 448.209 417.904 449.495 418.091 449.745C418.992 450.937 420.188 451.714 421.569 452.35C419.071 454.488 414.033 454.262 410.892 454.982C409.191 455.373 407.74 455.936 406.183 456.662C405.808 456.89 405.484 457.17 405.214 457.502C404.993 457.365 404.773 457.228 404.552 457.092C403.699 457.141 402.892 456.747 401.932 456.898C398.966 457.365 396.644 459.439 393.63 459.901C392.276 460.109 391.163 460.399 390.281 459.303C389.506 458.342 389.635 456.254 390.186 455.232ZM386.12 442.456C386.792 442.987 385.983 444.715 387.285 444.527C388.208 444.393 388.024 443.056 388.749 442.773C389.702 442.401 390.277 443.283 391.172 443.201C392.841 443.048 392.746 441.687 391.335 441.09C392.802 440.728 393.272 442.347 394.57 442.332C396.275 442.313 395.868 440.435 397.319 440.124C397.948 439.989 397.738 440.85 398.146 440.957C398.962 441.171 399.53 440.804 400.252 440.481C400.898 440.192 401.358 439.633 402.064 439.444C402.385 439.357 403.201 439.516 403.437 439.355C403.912 439.032 404.338 437.772 404.805 437.606C404.71 437.64 406.243 438.357 406.463 438.424C406.328 438.956 406.016 439.019 405.526 438.614C405.526 439.814 409.099 440.188 408.366 438.705C410.298 439.452 408.859 439.836 408.666 440.879C408.589 441.298 408.328 441.286 408.406 441.729C408.441 441.933 409.454 441.757 409.441 442.036C409.356 443.827 403.241 444.378 402.083 444.535C399.684 444.863 397.414 445.413 395.102 446.09C393.381 446.595 390.413 448.04 388.581 447.95C385.947 447.821 385.603 444.612 386.12 442.456ZM380.233 424.179C379.591 422.186 381.652 418.07 384.336 418.585C384.996 418.711 385.158 419.221 385.67 419.448C386.385 419.765 387.548 419.598 388.167 419.925C389.557 420.659 388.856 422.53 390.249 423.206C388.051 423.703 381.254 427.346 380.233 424.179ZM382.777 431.92C383.724 431.445 385.259 431.384 385.904 430.47C386.226 430.678 386.834 431.94 387.411 431.747C387.68 431.657 387.958 430.973 387.939 430.974C388.452 430.96 388.554 430.311 389.34 430.384C390.06 430.451 390.867 431.26 391.509 431.562C391.399 429.557 391.949 429.365 393.691 428.292C394.073 428.057 394.392 427.174 394.744 426.817C394.407 428.921 395.256 428.932 397.056 429.249C399.312 429.645 400.718 430.776 401.622 432.811C399.699 432.461 397.219 432.882 396.461 434.812C394.927 432.194 389.35 435.806 387.545 436.546C386.206 437.095 384.648 437.833 383.525 436.553C382.735 435.652 383.188 434.568 383.205 433.767C383.209 433.516 383.487 433.501 383.462 433.126C383.429 432.649 382.763 432.458 382.777 431.92ZM403.305 473.079C402.797 473.258 400.183 473.359 400.166 472.551C400.152 471.837 404.779 472.556 403.305 473.079ZM399.059 470.464C397.081 471.602 394.869 467.592 394.142 466.437C396.216 466.685 397.229 465.065 398.451 463.834C399.613 466.212 401.379 464.955 403.236 464.161C405.426 463.224 407.825 463.217 410.069 462.465C410.769 462.231 411.414 461.882 412.097 461.614C412.648 461.421 413.196 461.224 413.743 461.022C414.13 460.696 414.269 460.294 414.155 459.817C413.972 459.416 414.097 459.163 414.531 459.059C415.048 459.202 415.575 459.286 416.114 459.309C416.978 459.149 418.221 458.387 417.177 457.566C418.295 456.618 419.415 457.561 420.492 457.976C420.236 457.295 419.981 456.614 419.725 455.934C420.26 456.145 421.845 458.214 422.007 458.202C423.032 458.13 422.925 456.846 423.514 456.328C423.854 456.719 423.951 459.637 425.287 458.654C425.859 458.234 424.629 456.803 424.325 456.477C425.854 456.799 427.189 458.503 427.602 459.825C426.876 459.923 426.205 459.787 425.589 459.416C425.195 461.258 428.847 460.511 429.438 461.474C430.596 463.357 423.064 464.666 422.083 464.841C420.12 465.19 417.802 465.32 416.002 466.133C414.278 466.91 413.87 467.133 411.855 467.279C409.555 467.445 407.311 468.153 405.086 468.704C403.155 469.182 400.771 469.479 399.059 470.464ZM441.094 403.034C442.91 402.424 449.027 399.258 450.584 400.666C450.42 400.516 451.707 402.999 451.694 402.843C451.804 404.135 451.771 404.655 450.068 405.273C448.848 405.716 447.786 404.775 446.688 405.149C445.483 405.56 446.326 406.287 445.706 406.795C445.026 407.351 443.716 407.592 442.87 407.836C440.799 408.433 438.712 408.932 436.651 409.575C432.457 410.884 428.016 412.102 423.707 413.028C420.486 413.72 415.02 415.439 412.053 413.409C411.763 414.563 411.055 414.405 410.072 414.573C409.301 414.705 407.906 415.062 407.221 415.08C406.08 415.111 402.908 414.832 403.344 413.338C403.224 413.749 405.811 412.341 405.364 412.253C406.463 412.469 406.106 411.953 407.007 411.665C408.183 411.29 409.412 411.31 410.612 410.913C413.638 409.912 416.177 408.612 419.371 407.984C426.667 406.551 434.055 405.399 441.094 403.034ZM148.601 557.385C148.009 557.399 147.549 555.831 149.348 556.951C149.099 557.096 148.85 557.24 148.601 557.385ZM134.393 555.355C133.589 555.548 133.268 555.129 133.432 554.099C134.553 553.686 134.873 554.104 134.393 555.355ZM123.424 553.255C123.218 552.338 123.947 552.131 124.608 551.719C124.541 552.935 124.541 552.935 123.424 553.255ZM95.8256 545.704C94.7138 545.476 93.2324 544.461 92.9776 546.165C92.7916 545.77 91.8425 543.914 92.25 543.485C92.4628 543.26 93.2685 544.3 93.1828 544.197C94.1559 542.359 95.8332 544.577 96.7707 545.233C96.4558 545.39 96.1404 545.547 95.8256 545.704ZM384.89 342.639C385.274 341.881 385.727 341.641 386.247 341.918C385.43 343.69 382.661 344.65 384.89 342.639ZM404.124 326.004C404.809 327.204 403.778 327.711 403.042 328.709C403.472 327.633 403.771 326.887 404.124 326.004ZM487.715 443.155C490.188 443.154 495.456 441.935 496.947 444.575C497.934 442.781 499.056 446.144 499.912 446.684C500.009 446.745 500.625 446.304 500.912 446.467C501.345 446.711 501.718 447.377 501.966 447.772C502.713 448.965 503.034 450.384 503.448 451.696C499.128 451.696 494.699 450.758 490.383 450.416C487.55 450.192 484.773 450.186 481.936 450.328C481.372 450.356 480.253 450.183 479.771 450.282C479.281 450.383 478.393 451.314 477.853 451.164C478.692 452.634 489.436 456.193 490.256 454.565C489.285 454.017 487.128 453.595 487.129 452.27C487.131 450.784 489.153 450.787 490.225 450.83C492.568 450.926 496.493 451.655 497.454 453.93C497.865 454.905 497.992 457.361 497.54 458.302C497.247 458.91 496.753 459.641 495.97 459.765C495.648 459.815 495.185 459.416 495.136 459.426C493.528 459.745 490.552 460.95 488.799 459.25C487.534 460.778 481.443 459.109 479.578 458.533C476.316 457.525 471.825 456.141 469.844 453.3C467.43 449.837 472.339 446.911 475.158 445.503C479.011 443.58 483.413 443.156 487.715 443.155ZM504.174 451.161C504.932 451.361 505.69 451.561 506.448 451.761C506.245 453.002 503.254 452.02 504.174 451.161ZM527.091 496.268C527.324 491.296 525.785 486.918 524.895 482.109C524.675 480.917 524.9 478.833 523.93 477.853C523.004 476.916 520.936 477.678 520.853 476.021C519.941 477.019 520.033 477.227 518.909 476.08C519.114 476.572 519.143 477.072 518.998 477.581C518.3 477.208 515.771 475.968 515.984 477.664C513.904 477.234 514.506 476.02 513.32 475.093C513.151 474.961 512.474 475.429 512.21 475.23C511.733 474.869 511.497 474.541 511.095 474.076C510.584 474.653 509.888 475.07 509.263 475.526C508.899 474.788 508.192 474.246 507.342 474.066C508.137 475.618 510.102 477.629 507.407 478.512C505.798 479.039 503.164 478.393 501.46 478.516C495.146 478.973 488.231 477.688 482.126 476.284C475.855 474.842 469.513 472.805 463.873 469.829C462.67 469.195 461.913 468.444 460.878 467.657C459.871 466.891 459.14 466.771 457.93 466.281C455.753 465.401 453.761 463.988 452.105 462.414C448.543 459.029 445.234 454.603 446.226 449.647C447.214 444.708 450.851 440.848 454.743 437.595C459.339 433.754 464.528 430.547 470.035 427.961C472.498 426.805 478.796 422.463 481.229 425.004C482.784 426.627 481.91 428.698 479.785 429.059C479.261 429.148 478.714 428.82 478.184 429.044C477.42 429.369 477.689 429.752 477.373 430.022C476.826 430.492 476.244 431.225 475.426 431.632C472.571 433.053 469.811 434.179 467.082 435.91C465.824 436.707 464.613 437.05 463.504 437.746C462.401 438.438 462.15 439.583 460.667 438.877C461.195 440.89 458.024 443.047 456.781 444.281C454.855 446.191 452.547 448.629 453.445 451.456C455.204 456.989 463.151 461.191 468.236 463.624C474.583 466.658 481.582 469.074 488.649 470.074C492.162 470.571 495.793 470.878 499.332 471.193C502.088 471.439 506.317 470.54 508.3 472.857C508.361 470.155 517.4 470.394 519.324 470.048C515.467 457.739 507.893 446.796 499.796 436.571C495.823 431.552 491.92 426.39 487.391 421.789C482.431 416.752 476.766 412.25 471.383 407.615C460.825 398.524 448.883 390.41 436.732 383.263C424.609 376.133 412.054 369.115 398.773 364.031C383.604 358.224 367.633 354.405 351.645 351.153C353.814 348.573 357.342 347.315 360.119 345.427C361.091 344.766 362.405 343.18 363.668 342.964C365.036 342.729 366.113 344.102 367.086 344.792C369.881 346.771 371.813 345.93 375.014 345.811C376.929 345.74 381.464 346.735 382.272 344.317C383.346 345.652 381.789 346.722 380.992 347.7C381.572 348.456 382.039 347.672 382.612 347.554C382.789 347.417 382.965 347.28 383.142 347.144C383.426 346.759 383.683 346.757 383.911 347.136C384.252 347.616 384.596 347.51 384.943 346.817C385.038 346.762 385.132 346.706 385.227 346.65C385.641 346.444 386.04 346.119 386.425 345.862C389.334 343.922 391.926 342.269 395.137 340.84C397.833 339.64 396.383 337.345 398.161 335.724C398.563 335.357 399.24 335.541 399.67 335.231C400.091 334.925 400.155 334.579 400.462 334.252C401.2 333.466 400.321 332.553 402.206 333.516L401.526 329.945C405.22 333.291 405.206 323.662 405.711 322.237C405.644 322.425 406.042 320.967 406.042 320.979C406.15 318.09 406.573 315.996 402.948 315.828C404.32 315.022 404.74 316.596 405.374 314.966C405.691 314.15 404.7 312.747 406.279 313.273C406.612 311.538 406.283 310.134 405.869 308.448C405.445 306.722 405.694 305.57 405.714 303.844C405.735 301.886 404.753 299.919 404.439 297.991C404.193 296.481 404.447 294.1 402.356 294.655C402.062 294.225 403.095 292.904 403.053 292.251C402.987 291.237 401.808 290.206 401.474 289.232C400.982 289.705 400.29 289.863 399.621 289.649C400.249 288.325 399.66 287.881 399.058 286.739C398.714 286.086 398.922 285.364 398.185 284.895C397.762 284.627 397.041 285.079 396.71 284.764C396 284.089 396.262 283.194 395.774 282.305C395.161 281.189 393.761 280.338 392.797 279.501C387.374 274.795 381.485 271.199 374.272 269.361C366.995 267.506 358.512 266.841 351.26 268.981C348.361 269.836 345.788 269.748 343.179 271.345C342.333 271.863 342.242 271.725 341.812 272.588C341.713 272.79 342.614 273.326 342.062 273.655C341.463 274.013 340.801 273.286 340.496 272.682C336.722 275.232 333.185 278.632 331.035 282.531C328.899 286.405 328.703 290.956 327.888 295.166C324.126 291.154 319.037 289.231 313.505 291.159C308.683 292.84 304.946 296.535 304.003 301.321C303.428 304.239 304.056 307.194 305.476 309.826C306.09 310.964 306.833 312.223 307.962 312.989C308.854 313.594 310.383 313.509 310.803 314.601C311.448 316.274 307.727 319.886 306.761 321.35C305.013 324 303.39 326.736 302.154 329.63C297.722 323.786 293.48 317.403 288.441 312.015C283.686 306.929 278.017 302.368 272.457 298.069C260.917 289.148 248.917 280.766 236.008 273.658C223.988 267.04 209.469 263.366 195.46 264.665C181.773 265.935 171.294 274.016 162.476 283.337C145.521 301.258 135.137 326.801 134.122 350.657C133.817 357.823 134.402 364.896 136.298 371.847C137.201 375.157 137.07 378.412 137.595 381.764C138.187 385.546 139.211 389.314 140.202 393.018C143.975 407.129 148.783 421.23 154.177 434.874C156.982 441.969 160.376 448.905 164.967 455.161C167.087 458.051 169.834 460.312 172.116 463.056C174.33 465.718 174.915 468.985 175.402 472.25C176.569 480.081 177.343 487.944 178.045 495.82C178.343 499.158 178.691 502.467 179.164 505.782C179.577 508.672 178.539 508.53 175.934 509.511C176.463 506.914 164.02 508.681 162.845 508.858C161.567 509.051 160.213 509.054 159.206 509.207C158.08 509.378 156.978 509.626 155.682 509.591C153.776 509.54 150.207 509.085 149.48 511.357C148.979 508.723 145.671 511.603 148.118 511.114C145.606 511.376 143.043 510.94 140.5 511.161C137.586 511.413 134.648 511.654 131.754 512.063C129.74 512.348 127.818 513.072 125.8 513.282C123.218 513.552 120.523 513.527 117.916 513.741C108.299 514.533 98.3314 516.491 88.9834 518.734C86.866 519.242 84.4331 519.602 82.41 520.418C81.8684 520.635 81.381 521.123 80.8621 521.31C79.9923 521.624 80.1112 521.407 79.3387 521.551C74.7102 522.415 69.9354 523.825 65.3075 524.932C62.7405 525.547 58.565 526.101 56.4708 527.773C55.5322 528.522 54.7119 529.851 56.2161 530.702C57.4176 531.382 59.1329 530.297 60.1053 529.71C59.239 531.818 57.6048 532.868 58.4875 535.266C59.1842 537.162 60.7571 539.497 63.1772 538.275C63.5013 538.978 63.6325 540.378 64.5869 540.637C65.4445 540.869 66.0654 539.855 66.9055 540.094C67.2063 540.179 67.0921 540.71 67.3614 540.848C67.8255 541.087 68.296 541.188 68.8277 541.356C69.2848 541.501 70.0205 541.798 70.4974 541.83C70.8 541.85 71.513 541.367 71.5107 541.367C72.2056 541.465 72.5793 542.707 73.0796 543.065C73.729 543.531 74.2654 543.637 75.0787 543.806C76.7694 544.157 78.9487 544.757 80.0646 543.142C79.8092 544.295 81.49 544.182 82.2316 544.329C82.1494 543.721 81.7897 543.164 81.2347 542.83C82.8928 542.933 82.2205 544.471 83.446 544.878C84.3194 545.167 84.2203 544.432 84.8884 544.35C85.7687 544.243 86.4369 544.84 87.8116 544.289C88.1095 545.525 88.2185 546.772 89.8445 546.956C90.7989 547.065 93.0243 545.456 92.8983 546.795C95.0304 546.211 95.8396 546.606 96.9537 548.36C97.1421 547.283 98.0533 547.595 98.8893 547.529C100.215 547.423 100.248 547.523 101.276 546.822C101.369 546.759 102.177 545.031 102.537 546.105C102.698 546.586 101.631 547.718 101.235 548.006C101.726 548.238 103.335 549.049 103.953 548.9C104.489 548.771 104.49 547.917 105.133 547.873C104.976 548.364 104.819 548.855 104.661 549.346C105.912 549.516 106.958 548.734 107.946 548.162C108.888 550.386 111.581 549.133 113.045 550.806C113.82 551.692 113.856 552.365 115.332 552.596C116.843 552.833 118.162 552.214 119.446 553.377C119.039 552.655 118.025 552.057 119.033 551.281C119.718 552.189 120.072 553.283 120.863 554.128C120.972 553.699 121.081 553.269 121.19 552.839C123.251 554.897 125.845 554.915 128.485 556.056V554.55C130.375 557.243 130.476 555.539 132.734 554.439C132.581 555.231 132.427 556.023 132.274 556.814C133.898 556.7 135.417 558.497 136.75 556.97C137.556 558.232 138.533 557.611 139.853 558.012C140.604 558.24 141.163 558.93 141.894 559.18C142.989 559.554 143.316 559.537 144.348 559.863C145.265 560.152 145.786 560.716 146.934 560.897C147.679 561.014 148.356 561.006 149.069 560.973C149.345 560.961 149.254 560.382 149.867 560.517C150.814 560.726 151.52 561.836 152.202 562.404C153.228 559.996 156.101 563.222 157.49 563.651C157.623 563.034 157.599 562.29 158.077 561.783C158.639 562.932 158.854 563.898 160.021 564.639C160.694 565.066 161.683 565.372 162.461 565.528C162.952 565.626 163.845 565.508 164.154 565.65C164.681 565.891 164.875 566.535 165.408 566.595C165.721 566.631 166.185 565.862 166.419 565.921C167.492 566.195 168.088 567.411 169.171 568.069C172.394 570.027 176.451 570.217 180.042 570.646C180.944 570.753 181.074 570.524 181.806 571.017C182.197 571.281 182.02 572.084 182.5 572.308C184.31 573.155 184.312 571.348 184.691 570.225C185.29 570.963 185.393 571.937 186.212 572.523C186.659 572.511 187.107 572.521 187.554 572.552C187.806 572.82 187.971 573.13 188.048 573.481C189.133 574.164 190.361 573.927 191.481 574.44C191.848 574.608 192.499 575.625 192.951 575.918C193.761 576.441 195.013 576.721 195.939 576.948C197.879 577.425 200.661 576.792 201.815 578.683C203.348 577.149 202.755 578.981 203.796 579.365C204.41 579.592 205.334 578.689 206.016 578.779C207.243 578.94 207.685 580.181 208.078 581.083C208.825 580.927 208.312 578.953 208.291 578.52C209.22 578.418 209.426 580.701 209.587 581.203C211.053 580.544 208.646 578.492 210.223 577.834C210.078 579.582 211.57 581.021 208.906 581.271C209.274 582.324 217.867 583.493 218.464 582.564C218.597 584.282 219.833 582.677 220.288 582.09C220.34 583.092 219.974 584.514 221.179 584.98C221.997 585.296 223.843 584.478 224.164 583.729C224.531 584.873 225.145 584.836 225.909 585.563C226.434 586.062 226.78 586.927 227.33 587.345C228.343 588.114 230.226 587.996 231.406 587.825C233.715 587.488 233.442 587.075 234.265 589.315C234.451 588.465 235.034 586.687 236.051 588.009C236.698 588.849 235.32 590.7 234.922 591.437C235.812 590.981 236.695 590.44 237.707 590.244C237.764 590.535 237.815 591.153 237.666 591.422C237.696 591.368 238.776 592.044 239.177 592.231C239.081 592.186 239.493 590.503 239.482 590.558C240.906 591.379 239.918 592.948 241.179 593.757C241.505 593.967 242.27 593.722 242.664 593.85C243.35 594.072 243.944 594.672 244.554 595.023C244.067 594.413 244.137 593.39 244.17 592.686C244.48 592.846 244.702 593.445 245.015 593.493C245.133 593.51 246.361 593.662 246.352 593.657C247.63 594.492 247.367 594.597 246.27 595.601C246.662 596.176 248.3 595.177 248.743 595.011C248.835 595.236 248.859 596.052 249.034 596.198C249.139 596.44 249.245 596.681 249.351 596.923C249.678 596.696 250.029 596.619 250.404 596.695C250.64 596.772 252.488 597.473 252.613 597.233C252.209 597.111 251.843 596.924 251.515 596.672C252.581 595.777 253.283 595.302 254.265 596.594C254.389 596.757 253.964 597.341 254.089 597.553C254.559 598.344 255.523 598.972 256.178 599.616C256.449 598.727 255.818 596.502 257.323 596.583C258.526 596.647 259.441 599.367 259.025 600.213C259.503 599.725 262.357 599.24 262.896 599.392C264.419 599.823 263.992 601.138 265.866 599.212C267.144 600.035 266.018 600.347 266.248 601.351C266.586 601.417 266.905 601.339 267.208 601.117C266.982 605.383 270.353 602.124 272.542 602.775C273.402 603.031 273.621 603.941 274.544 604.208C275.032 604.348 275.575 604.015 276.049 604.097C276.429 604.046 276.807 603.983 277.182 603.909C277.658 603.686 277.881 603.935 277.852 604.656C278.617 605.026 278.328 605.17 279.222 605.242C279.798 605.289 280.328 604.73 280.983 604.825C282.112 604.99 281.963 605.8 282.685 606.222C283.334 606.603 284.067 606.591 284.866 606.517C285.274 606.48 286.418 605.99 286.556 605.988C287.411 605.977 286.947 605.807 287.973 606.492C288.772 607.027 289.107 607.373 290.088 607.619C291.213 607.9 293.208 608.516 293.964 607.757C294.986 609.188 295.787 608.138 297.136 608.232C297.826 608.281 297.936 608.532 298.55 608.633C299.546 608.795 300.788 608.654 301.848 608.972C303.517 609.472 303.705 609.724 305.411 609.791C305.719 609.679 306.027 609.566 306.334 609.454C306.426 609.934 306.668 610.325 307.06 610.628C308.015 610.815 308.642 610.365 309.429 609.873C310.015 611.578 311.918 611.727 313.546 611.951C316.172 612.313 318.684 612.511 321.216 613.317C323.355 613.997 325.499 614.762 327.556 615.633C329.367 616.4 331.076 617.547 333.124 617.008C337.766 615.788 342.265 611.34 346.148 608.785C350.748 605.76 355.709 603.268 360.515 600.548C379.65 589.72 399.864 580.561 418.73 569.33C429.03 563.199 438.588 555.914 449.649 550.953C448.074 557.028 445.394 563.195 445.878 569.554C446.073 572.117 446.881 575.145 449.011 576.934C451.643 579.147 454.575 577.738 457.092 576.158C462.487 572.772 466.084 567.831 470.121 563.191C474.897 557.703 478.601 551.806 482.107 545.551C482.947 546.652 482.309 548.497 482.321 549.717C482.337 551.275 482.787 552.776 483.561 554.167C485.558 557.756 489.359 558.626 492.794 556.167C499.404 551.435 503.24 543.007 506.782 536.219C508.802 539.728 511.669 544.144 516.521 541.638C520.523 539.571 522.875 534.95 524.1 531.037C527.675 519.614 526.542 507.978 527.091 496.268Z" fill="black"/>
<path fill-rule="evenodd" clip-rule="evenodd" d="M521.02 427.653C520.564 426.618 520.363 426.787 521.203 425.784C521.857 426.385 521.333 426.882 521.02 427.653ZM541.251 490.306C539.967 486.899 540.76 483.199 539.98 479.704C539.622 478.101 539.058 476.545 538.854 474.913C538.764 474.189 538.073 470.928 538.543 470.415C537.095 469.596 537.09 468.99 536.756 467.385C537.272 466.874 537.207 466.438 536.561 466.076C536.139 465.599 535.716 465.122 535.294 464.645C537.141 465.488 536.048 463.33 535.86 462.087C535.71 461.104 535.61 460.078 535.259 459.136C534.827 457.978 533.866 457.392 535.865 457.392C535.207 456.694 534.224 455.973 533.896 455.118C533.425 453.888 534.202 452.262 533.241 451.175C532.706 450.568 529.944 450.331 530.428 449.021C530.675 448.354 531.794 448.852 532.141 448.385C533.502 446.547 529.483 445.786 529.286 445.004C529.03 443.991 530.482 443.764 530.571 442.817C530.658 441.889 529.114 440.365 528.706 439.536C528.149 439.662 527.54 440.484 526.903 440.091C526.782 440.017 526.964 436.806 526.819 436.38C526.677 435.961 526.386 434.85 526.282 434.644C525.87 433.827 524.69 433.429 524.503 432.464C524.391 431.888 526.809 431.016 524.036 430.989C525.032 429.351 523.208 428.356 522.544 426.956C521.69 425.156 521.187 423.212 520.31 421.402C519.458 419.644 518.505 417.975 517.276 416.42C516.163 415.012 515.682 413.658 514.793 412.171C514.616 412.04 514.438 411.91 514.26 411.779C513.518 411.879 513.28 411.564 513.546 410.833C512.979 410.049 512.557 409.212 512.057 408.393C511.476 407.441 510.692 406.665 510.091 405.739C509.294 404.512 509.059 403.127 508.158 401.896C507.051 400.382 505.806 399.046 504.779 397.475C503.493 395.506 502.069 394.283 500.45 392.758C499.68 392.032 499.587 390.218 498.643 389.188C497.616 388.065 496.601 387.761 495.888 386.287C494.961 384.369 493.601 383.454 492.277 381.796C491.184 380.429 490.651 378.858 489.448 377.535C488.413 376.399 487.238 375.361 486.133 374.284C484.739 372.924 483.709 371.271 482.257 369.978C482.467 370.165 480.994 369.075 481.068 369.11C480.742 368.955 479.69 368.83 479.844 368.915C477.653 367.712 474.907 363.312 471.61 365.644C469.876 366.87 470.708 369.119 471.919 370.34C472.439 370.865 475.141 373.451 475.725 372.36C476.355 373.194 478.296 377.225 479.91 376.07C479.746 377.448 480.6 376.99 481.165 377.922C481.536 378.536 481.355 378.838 481.626 379.797C482.37 382.433 485.211 385.008 486.724 387.307C490.489 393.029 494.643 398.456 498.413 404.184C502.004 409.644 506.027 414.824 509.473 420.357C513.393 426.649 518.276 432.588 521.229 439.371C521.329 439.599 522.149 439.96 522.353 440.302C522.708 440.897 522.631 441.926 522.86 442.6C523.652 444.936 524.937 447.235 526.4 449.17C527.684 450.868 527.777 453.175 528.66 455.166C529.906 457.973 531.222 460.751 532.432 463.571C534.316 467.962 535.592 472.17 536.894 476.754C537.738 479.725 538.409 482.694 538.677 485.761C538.925 488.582 538.985 491.521 540.103 494.192C540.866 493.092 541.764 491.668 541.251 490.306Z" fill="black"/>
<path fill-rule="evenodd" clip-rule="evenodd" d="M110.328 550.753C108.974 550.498 107.7 550.157 107.413 548.706C107.217 549.391 107.021 550.075 106.825 550.759C108.473 551.107 110.121 551.456 111.77 551.804C111.385 551.171 111.104 550.9 110.328 550.753Z" fill="black"/>
<path fill-rule="evenodd" clip-rule="evenodd" d="M113.96 312.613C114.063 312.203 114.196 311.802 114.36 311.411C114.471 311.792 115.017 312.618 114.699 312.977C114.294 313.434 113.885 313.175 113.96 312.613ZM120.597 300.825C121.041 301.008 122.002 301.043 122.554 301.198C121.123 302.347 120.871 302.009 119.021 301.875C118.939 300.713 119.445 300.352 120.597 300.825ZM108.195 329.605C108.387 329.61 108.58 329.614 108.773 329.618C108.784 329.112 108.77 328.607 108.729 328.101C110.68 328.499 109.576 325.317 108.963 324.657C110.866 324.717 111.793 319.092 112.396 318.009C112.931 317.046 113.538 316.674 113.929 315.501C114.271 314.473 114.641 313.549 115.135 312.578C116.27 310.344 117.758 308.316 117.483 305.712C118.445 307.666 119.29 305.716 119.9 304.782C120.882 303.277 123.279 301.357 123.534 299.569C123.759 297.996 122.507 297.912 123.246 296.453C123.993 294.976 124.608 295.124 125.917 294.652C126.788 294.337 126.961 294.719 127.576 293.693C127.974 293.028 127.833 292.533 128.344 291.988C128.554 292.159 128.794 292.23 129.062 292.2C129.476 291.69 129.748 291.122 129.876 290.496C130.214 289.65 130.377 288.873 130.886 288.068C131.368 287.305 132.224 285.263 132.677 284.895C133.159 284.504 135.89 284.703 135.878 284.717C137.007 283.392 134.936 282.072 137.803 282.352C137.237 281.368 139.225 280.146 139.803 279.599C141.244 278.232 141.359 277.6 141.664 275.881C141.818 275.005 140.81 275.106 142.162 274.906C142.721 274.824 143.257 275.491 143.66 275.393C145.442 274.962 143.578 275.044 144.07 274.367C144.225 274.152 145.017 273.284 145.01 273.293C144.971 273.337 145.188 272.538 145.367 272.333C145.708 272.306 146.043 272.251 146.373 272.167C146.54 271.851 146.688 271.528 146.816 271.197C148.105 270.193 150.034 269.744 150.925 268.642C151.502 267.929 151.329 267.23 152.074 266.519C152.784 265.842 153.723 266.333 153.863 264.803C154.042 262.858 151.803 261.992 150.887 263.955C148.404 261.1 138.023 271.577 136.823 272.946C131.614 278.888 126.494 284.978 122.221 291.549C118.058 297.952 114.641 304.689 111.97 311.75C110.683 315.155 109.898 318.545 109.112 322.067C108.848 323.247 106.874 328.503 107.696 329.679C107.862 329.654 108.029 329.629 108.195 329.605Z" fill="black"/>
<path fill-rule="evenodd" clip-rule="evenodd" d="M518.228 475.328C519.105 474.781 519.105 474.781 519.259 473.749C518.083 473.949 518.082 473.949 518.228 475.328Z" fill="black"/>
<path fill-rule="evenodd" clip-rule="evenodd" d="M85.7313 544.79C85.7425 544.789 85.7508 544.792 85.7573 544.798C85.7384 544.776 85.6699 544.71 85.7313 544.79Z" fill="black"/>
<path fill-rule="evenodd" clip-rule="evenodd" d="M85.1424 545.344C85.4134 545.891 85.849 546.027 86.4494 545.751C86.6861 546.067 84.3961 543.781 85.1424 545.344Z" fill="black"/>
<path fill-rule="evenodd" clip-rule="evenodd" d="M124.744 295.69C123.369 298.205 125.09 296.376 125.002 297.193C125.06 296.656 125.299 295.891 124.744 295.69Z" fill="black"/>
<path fill-rule="evenodd" clip-rule="evenodd" d="M348.147 334.617C348.742 339.127 355.351 336.994 356.838 334.266C357.921 332.28 360.654 324.432 357.713 322.774C355.533 321.545 355.067 326.842 354.529 328.025C353.629 330.007 352.925 328.603 350.922 329.111C348.712 329.672 347.901 332.747 348.147 334.617Z" fill="black"/>
<path fill-rule="evenodd" clip-rule="evenodd" d="M340.926 326.362C343.289 326.852 345.604 326.599 347.282 324.858C348.211 323.893 349.448 321.98 347.775 321.047C346.258 320.202 344.539 322.181 342.942 321.772C340.771 321.215 341.889 319.041 341.144 317.605C338.406 319.077 336.878 325.523 340.926 326.362Z" fill="black"/>
<path fill-rule="evenodd" clip-rule="evenodd" d="M343.375 337.75C341.098 337.745 341.08 340.36 342.268 341.481C343.406 342.553 346.282 343.638 347.824 342.804C350.867 341.158 345.218 337.919 343.375 337.75Z" fill="black"/>
<path fill-rule="evenodd" clip-rule="evenodd" d="M210.876 441.726C211.362 441.946 212.795 443.08 213.399 442.568C212.547 441.767 211.694 440.965 210.842 440.163C210.371 440.645 210.048 441.35 210.876 441.726Z" fill="black"/>
<path fill-rule="evenodd" clip-rule="evenodd" d="M200.114 327.014C199.872 327.183 199.63 327.351 199.388 327.52C200.205 328.155 200.184 328.344 201.008 327.742C200.763 327.442 200.466 327.2 200.114 327.014Z" fill="black"/>
<path fill-rule="evenodd" clip-rule="evenodd" d="M354.454 476.643C353.996 475.875 353.131 477.29 352.547 477.521C351.595 477.895 350.815 475.913 351.087 478.288C348.937 477.369 347.631 479.478 346.244 480.576C344.285 482.128 341.888 482.97 340.581 485.175C346.734 486.519 353.494 481.567 358.081 478.314C358.83 477.783 362.572 475.104 360.035 474.844C358.998 474.739 355.223 477.933 354.454 476.643Z" fill="black"/>
<path fill-rule="evenodd" clip-rule="evenodd" d="M352.629 471.993C353.835 471.107 351.235 471.026 350.824 470.933C350.86 471.638 350.894 472.342 350.93 473.047C351.511 472.718 352.078 472.366 352.629 471.993Z" fill="black"/>
<path fill-rule="evenodd" clip-rule="evenodd" d="M348.102 474.949C348.462 474.739 349.466 474.083 348.783 473.594C348.166 473.961 347.724 474.56 347.628 475.243C347.786 475.145 347.944 475.047 348.102 474.949Z" fill="black"/>
<path fill-rule="evenodd" clip-rule="evenodd" d="M248.458 417.796C247.688 418.078 247.343 418.524 247.424 419.134C248.608 418.909 248.382 417.865 248.458 417.796Z" fill="black"/>
<path fill-rule="evenodd" clip-rule="evenodd" d="M493.597 253.673C499.637 255.221 506.028 255.479 512.173 256.624C513.711 256.911 518.232 257.037 518.678 258.42C518.938 259.229 518.097 260.655 517.77 261.395C517.209 262.663 516.704 263.921 516.232 265.219C514.07 271.163 512.145 277.072 509.584 282.896C509.198 283.773 508.446 287.572 507.294 286.225C506.771 285.614 506.715 284.739 505.771 284.331C505.286 284.121 503.807 284.433 503.961 283.559C504.276 283.578 504.592 283.598 504.908 283.617C504.489 283.11 504.279 282.467 503.765 282.03C503.445 281.758 503 281.733 502.729 281.396C502.355 280.93 502.452 280.2 502.206 279.67C501.96 279.142 501.477 278.731 501.116 278.278C498.972 275.596 497.501 272.647 495.842 269.684C494.2 266.753 492.293 264.024 490.848 260.984C489.321 257.772 487.719 254.595 485.981 251.488C487.044 251.264 488.192 252.03 489.118 252.364C490.573 252.891 492.091 253.287 493.597 253.673ZM501.18 287.308C500.885 287.218 500.628 287.07 500.408 286.865C502.405 284.9 501.636 287.32 501.18 287.308ZM498.88 285.435C497.933 286.075 497.203 286.395 496.256 286.274C496.166 286.263 496.149 285.936 495.99 285.924C495.851 285.913 495.69 286.044 495.57 286.03C495.16 285.986 494.677 286.571 494.39 285.948C495.586 285.093 496.644 283.921 498.007 283.304C499.902 282.448 500.475 284.357 498.88 285.435ZM492.998 283.339C491.686 284.156 490.773 285.305 489.193 285.648C487.709 285.97 486.23 285.711 484.827 285.306C487.364 283.567 490.254 282.393 492.797 280.68C493.625 280.122 494.603 279.077 495.673 278.98C496.863 278.873 497.273 279.814 497.91 280.576C496.269 281.49 494.592 282.346 492.998 283.339ZM482.779 282.76C481.52 283.551 480.361 284.72 478.806 283.96C478.555 283.837 478.46 284.082 478.277 283.496C478.084 282.877 478.532 282.277 478.961 281.884C479.969 280.96 481.747 280.698 482.98 280.179C484.948 279.35 486.854 278.233 488.735 277.227C490.037 276.53 491.294 275.561 492.733 275.156C493.844 274.843 495.463 275.254 494.106 276.451C492.87 277.542 490.677 278.216 489.204 279.02C487.027 280.208 484.875 281.44 482.779 282.76ZM479.296 277.158C479.415 277.212 479.534 277.266 479.652 277.32C479.636 277.322 480.03 276.719 480.168 276.657C480.841 276.355 481.555 276.153 482.236 275.871C483.806 275.22 485.325 274.387 486.794 273.542C487.99 272.853 489.15 271.986 490.504 271.622C491.675 271.307 491.873 271.485 492.315 272.498C489.404 273.527 486.384 274.529 483.729 276.123C482 277.16 480.345 279.013 478.694 277.31C478.895 277.259 479.095 277.209 479.296 277.158ZM479.561 272.115C480.467 272.379 482.13 270.82 482.964 270.428C483.871 270.002 484.72 269.592 485.553 269.049C486.291 268.567 488.616 266.643 489.566 267.361C491.023 268.461 487.272 270.084 486.687 270.37C484.237 271.572 481.678 272.774 479.415 274.286C479.463 273.562 479.512 272.839 479.561 272.115ZM481.344 266C481.765 266.597 486.681 262.109 487.415 263.849C487.978 265.183 482.418 267.913 481.333 268.162C481.355 267.448 481.806 266.656 481.344 266ZM481.811 261.143C481.46 259.761 481.653 259.701 482.746 259.174C483.579 258.771 484.601 257.87 484.891 259.409C485.139 260.726 482.164 262.537 481.811 261.143ZM482.249 255.807C482.269 254.992 483.226 255.742 483.368 256.103C483.746 257.063 482.891 257.128 482.14 257.394C482.188 256.866 482.225 256.336 482.249 255.807ZM489.857 247.051C489.642 246.931 488.758 247.168 488.483 247.17C487.807 247.175 487.735 246.7 487.119 247.411C487.068 247.388 487.025 247.033 486.978 247.032C486.954 247.032 486.346 247.031 486.133 246.986C485.619 246.88 485.149 246.764 484.646 246.581C484.112 246.385 483.523 246.037 482.954 245.932C482.714 245.888 482.494 245.783 482.241 245.833C481.586 245.962 481.91 246.309 481.394 246.583C481.076 246.752 480.701 246.468 480.318 246.783C479.988 247.054 479.945 247.634 479.882 247.993C479.652 249.297 479.592 250.635 479.379 251.947C478.291 258.654 476.707 265.296 475.733 272.021C475.265 275.261 474.74 278.542 474.757 281.803C474.77 284.155 474.207 287.796 476.361 289.389C477.928 290.547 480.219 290.476 482.122 290.631C484.986 290.863 487.776 291.504 490.654 291.693C494.087 291.919 497.454 292.234 500.865 292.635C502.319 292.806 503.747 293.289 505.186 293.429C506.066 293.515 507.02 292.501 507.552 293.223C508.116 291.805 509.903 291.985 510.729 290.836C511.215 290.16 511.373 289.11 511.715 288.368C512.229 287.255 512.832 286.178 513.367 285.074C515.489 280.689 517.313 276.259 519.056 271.739C520.722 267.423 522.929 263.12 524.042 258.646C524.485 256.87 524.124 255.299 522.933 253.93C522.065 252.931 520.341 251.569 519.035 252.895C519.301 251.746 516.64 251.56 515.875 251.624C515.863 251.625 515.98 252.395 515.778 252.446C515.85 252.428 514.628 251.057 514.267 250.953C513.195 250.644 511.902 250.299 510.79 250.125C509.77 249.966 508.786 250.057 507.773 249.834C506.547 249.563 505.361 249.147 504.132 248.882C502.945 248.627 501.608 248.301 500.385 248.269C499.324 248.242 498.461 248.468 497.413 248.178C496.116 247.82 495.035 247.648 493.659 247.572C492.469 247.506 490.898 247.636 489.857 247.051Z" fill="black"/>
<path fill-rule="evenodd" clip-rule="evenodd" d="M126.997 474.782C127.287 474.114 127.577 473.447 127.868 472.78C128.228 473.943 128.329 474.522 126.997 474.782ZM127.384 477.864C126.753 477.974 127.002 476.043 127.002 475.707C128.09 476.309 127.189 477.03 127.384 477.864ZM126.401 472.294C126.938 471.984 127.476 471.674 128.013 471.364C127.265 472.718 127.558 471.872 127.867 472.776C127.303 472.935 126.754 472.75 126.401 472.294ZM123.217 482.874C121.203 490.01 114.807 495.638 108.051 498.553C104.169 500.228 100.353 500.647 96.1603 500.46C94.5434 500.388 92.6408 499.875 91.0847 499.97C89.8866 500.044 89.9407 500.095 88.9483 501.085C88.5093 500.296 88.8273 499.741 87.9466 499.282C86.8477 498.708 86.3916 499.376 85.8465 500.17C85.1332 499.448 84.8412 499.071 83.9169 498.642C83.946 498.656 83.0321 498.622 83.0695 498.633C82.9043 498.584 81.9104 497.959 81.5992 497.846C80.3221 497.378 78.8455 497.186 77.6672 496.514C76.6364 495.928 75.7874 494.283 74.608 495.547C74.607 493.434 71.6928 492.558 70.3268 491.451C68.1925 489.722 66.4956 487.162 65.4316 484.685C64.2969 482.044 63.9181 479.512 63.3871 476.79C63.0161 474.888 60.5867 472.139 62.0456 470.22C62.3932 471.025 62.2301 471.849 62.8073 472.578C63.3268 471.601 63.6126 470.507 63.8474 469.437C63.9628 468.912 64.6309 467.374 64.5551 466.917C64.4008 465.983 63.2162 465.932 63.8729 464.786C65.2352 466.234 66.3346 463.692 65.3053 462.678C64.7972 463.238 64.6107 463.874 64.3764 464.567C63.0369 461.926 66.744 462.777 65.9329 460.393C67.2859 460.139 68.0637 459.806 68.578 458.5C69.15 457.048 68.7292 456.731 70.0281 455.771C70.4749 455.441 71.7385 454.967 71.9697 454.424C72.417 453.375 71.2787 453.064 72.2757 452.081C72.6124 452.658 73.9248 453.8 74.6433 452.713C74.7872 452.497 74.183 452.343 74.6225 451.843C75.2736 451.105 76.002 450.38 77.1029 450.535C76.2311 448.407 81.8018 448.238 83.2285 447.736C84.6583 447.233 85.8715 446.903 87.3876 446.786C88.9021 446.669 88.9774 446.236 90.2597 445.346C90.3683 446.62 90.6821 446.34 91.6095 446.564C91.8324 446.191 92.061 446.149 92.2948 446.438C92.5275 446.655 92.8123 446.756 93.1479 446.744C93.6571 446.77 94.2348 446.705 94.7684 446.716C96.021 446.739 97.3132 446.637 98.5419 446.663C98.8589 446.612 99.155 446.504 99.4325 446.34C99.5483 446.553 99.6647 446.767 99.78 446.98C100.431 447.06 100.481 447.857 101.282 446.985C101.519 448.093 102.2 447.517 102.919 447.817C103.574 448.092 103.679 448.53 104.284 448.836C104.682 449.151 105.109 449.193 105.565 448.962C105.999 449.276 106.439 449.581 106.886 449.877C107.71 450.331 108.68 450.609 109.548 450.968C110.125 451.2 110.699 451.442 111.267 451.693C111.285 452.364 111.593 452.601 112.191 452.403C112.732 452.845 112.884 452.828 113.409 453.58C114.598 455.286 115.653 456.611 117.154 458.135C123.68 464.762 125.685 474.131 123.217 482.874ZM125.22 454.696C122.274 450.842 118.103 446.43 114.356 443.996C112.456 442.762 109.79 440.547 107.467 439.895C106.916 439.74 106.346 439.73 105.805 439.568C105.387 439.442 105.159 439.023 104.682 438.947C104.349 438.895 104.312 439.624 103.957 439.557C103.216 439.416 102.747 438.698 102.224 438.249C101.1 440.14 100.49 436.959 98.8396 439.098C96.8757 436.09 92.2621 436.748 89.126 436.9C88.196 436.944 87.759 437.267 86.9345 437.507C86.1671 437.73 86.0913 437.672 85.2532 437.666C83.1662 437.651 81.3134 437.907 79.3843 438.802C76.1433 440.305 73.1683 442.648 70.0899 444.46C66.6494 446.485 63.5482 449.063 60.9161 452.025C51.4009 462.734 48.8566 478.366 56.4437 490.782C68.4949 510.5 99.5805 512.608 117.195 499.228C130.804 488.89 135.983 468.768 125.22 454.696Z" fill="black"/>
</g>
<path fill-rule="evenodd" clip-rule="evenodd" d="M333.556 3.3557C331.619 2.89235 329.222 1.9875 327.068 2.29594C324.779 2.62345 323.858 4.12238 322.194 5.02351C317.67 7.4738 315.034 3.82185 312.548 1.82049C310.2 -0.0692215 307.336 -0.527922 304.023 0.633258C302.703 1.09615 297.143 3.21707 298.113 4.57596C298.81 5.55385 301.557 4.67598 302.494 4.46245C304.528 3.99956 306.417 3.59436 308.498 4.26939C312.4 5.53478 313.413 9.00482 318.134 9.54587C323.016 10.1055 323.176 7.06766 326.661 5.92416C328.996 5.15795 330.624 6.51452 332.877 6.24423C335.024 5.98696 336.017 3.94374 333.556 3.3557Z" fill="black"/>
<path fill-rule="evenodd" clip-rule="evenodd" d="M294.157 16.3917C295.9 16.66 297.038 14.2633 298.129 13.6553C299.938 12.6476 303.076 12.4444 304.918 13.4587C308.517 15.4385 307.277 19.7126 312.401 20.8267C316.98 21.8227 319.137 17.546 322.992 16.4813C325.233 15.8621 327.694 15.4568 326.819 13.2352C326.215 11.699 324.436 11.3043 322.501 11.8945C319.176 12.9078 318.047 17.0358 314.105 17.1096C310.027 17.186 309.585 13.0173 307.834 11.2015C305.165 8.43402 299.678 7.76546 296.56 10.4117C295.618 11.2101 290.838 15.882 294.157 16.3917Z" fill="black"/>
<defs>
<clipPath id="clip0_23_128">
<rect width="597" height="417" fill="white" transform="translate(0 241.733)"/>
</clipPath>
</defs>
</svg>
